<svg width="61" height="67" xmlns="http://www.w3.org/2000/svg" xmlns:xlink="http://www.w3.org/1999/xlink" xmlns:svgjs="http://svgjs.com/svgjs" viewBox="0.35 0 60.3 67" fill="#1453ff"><svg xmlns="http://www.w3.org/2000/svg" width="61" height="67" viewBox="1 0.333 60 66.666"><path paint-order="stroke fill markers" fill-rule="evenodd" d="M54.333 7H40.4C39 3.133 35.333.333 31 .333S23 3.133 21.6 7H7.667C4 7 1 10 1 13.666v46.667C1 64 4 67 7.667 67h46.666C58 67 61 64 61 60.333V13.666C61 10 58 7 54.333 7zM31 7c1.833 0 3.333 1.5 3.333 3.333 0 1.833-1.5 3.333-3.333 3.333a3.343 3.343 0 0 1-3.334-3.333C27.666 8.5 29.166 7 31 7zm-6.667 46.666L11 40.333l4.7-4.7 8.633 8.6L46.3 22.266 51 27 24.333 53.666z"/></svg></svg>