<svg width="68" height="68" xmlns="http://www.w3.org/2000/svg" xmlns:xlink="http://www.w3.org/1999/xlink" xmlns:svgjs="http://svgjs.com/svgjs" fill="#1453ff"><svg xmlns="http://www.w3.org/2000/svg" width="68" height="68" viewBox="0.633 0.666 66.667 66.667"><path paint-order="stroke fill markers" fill-rule="evenodd" d="M33.966.666C15.566.666.633 15.6.633 34c0 18.4 14.933 33.333 33.333 33.333S67.3 52.4 67.3 34 52.367.666 33.966.666zM46 21.8a6.416 6.416 0 0 1 6.433 6.433A6.416 6.416 0 0 1 46 34.666a6.416 6.416 0 0 1-6.434-6.433C39.533 24.666 42.433 21.8 46 21.8zm-20-5.267c4.333 0 7.867 3.533 7.867 7.867 0 4.333-3.534 7.866-7.867 7.866s-7.867-3.533-7.867-7.866c0-4.367 3.5-7.867 7.867-7.867zm0 30.433v12.5c-8-2.5-14.334-8.666-17.134-16.533C12.366 39.2 21.1 37.3 26 37.3c1.766 0 4 .266 6.333.733-5.467 2.9-6.333 6.733-6.333 8.933zm7.966 13.7c-.9 0-1.766-.033-2.633-.133V46.966c0-4.733 9.8-7.1 14.667-7.1 3.566 0 9.733 1.3 12.8 3.834-3.9 9.9-13.534 16.966-24.834 16.966z"/></svg></svg>