<svg width="213" height="218" xmlns="http://www.w3.org/2000/svg" xmlns:xlink="http://www.w3.org/1999/xlink" xmlns:svgjs="http://svgjs.com/svgjs" viewBox="1400 1436 213 218"><svg width="204" height="188" xmlns="http://www.w3.org/2000/svg" xmlns:xlink="http://www.w3.org/1999/xlink" xmlns:svgjs="http://svgjs.com/svgjs" viewBox="1404 1463 204 188" x="1404" y="1463"><svg width="198" height="186" xmlns="http://www.w3.org/2000/svg" xmlns:xlink="http://www.w3.org/1999/xlink" xmlns:svgjs="http://svgjs.com/svgjs" viewBox="1407 1465 198 186" x="1407" y="1465"><svg width="198" height="186" xmlns="http://www.w3.org/2000/svg" xmlns:xlink="http://www.w3.org/1999/xlink" xmlns:svgjs="http://svgjs.com/svgjs" viewBox="1407 1465 198 186" x="1407" y="1465"><svg width="198" height="175" xmlns="http://www.w3.org/2000/svg" xmlns:xlink="http://www.w3.org/1999/xlink" xmlns:svgjs="http://svgjs.com/svgjs" viewBox="0 0.207 198 174.585" fill="#2626bc" opacity=".102" x="1407" y="1476"><svg xmlns="http://www.w3.org/2000/svg" xmlns:xlink="http://www.w3.org/1999/xlink" width="198" height="175" viewBox="0.143 0.646 197.714 174.333"><path paint-order="stroke fill markers" fill-rule="evenodd" d="M190.943.646H7.057A6.914 6.914 0 0 0 .143 7.56v144.857a6.914 6.914 0 0 0 6.914 6.914h7.878v11.038a4.61 4.61 0 0 0 4.61 4.61h67.102a4.61 4.61 0 0 0 4.61-4.61v-11.038h15.486v11.038a4.61 4.61 0 0 0 4.61 4.61h67.102a4.61 4.61 0 0 0 4.61-4.61v-11.038h7.878a6.914 6.914 0 0 0 6.914-6.914V7.56a6.914 6.914 0 0 0-6.914-6.914z"/></svg></svg><svg width="198" height="160" xmlns="http://www.w3.org/2000/svg" xmlns:xlink="http://www.w3.org/1999/xlink" xmlns:svgjs="http://svgjs.com/svgjs" viewBox="0 0.543 198 158.915" fill="#fff" x="1407" y="1465"><svg xmlns="http://www.w3.org/2000/svg" xmlns:xlink="http://www.w3.org/1999/xlink" width="198" height="160" viewBox="0.143 0.583 197.714 158.685"><path paint-order="stroke fill markers" fill-rule="evenodd" d="M190.943 159.269H7.057a6.914 6.914 0 0 1-6.914-6.915V7.497A6.914 6.914 0 0 1 7.057.583h183.886a6.914 6.914 0 0 1 6.914 6.914v144.857a6.914 6.914 0 0 1-6.914 6.915z"/></svg></svg><svg width="42" height="42" xmlns="http://www.w3.org/2000/svg" xmlns:xlink="http://www.w3.org/1999/xlink" xmlns:svgjs="http://svgjs.com/svgjs" fill="#ffdbed" x="1485" y="1570"><svg xmlns="http://www.w3.org/2000/svg" xmlns:xlink="http://www.w3.org/1999/xlink" width="42" height="42" viewBox="0.588 0.39 40.825 40.824"><path paint-order="stroke fill markers" fill-rule="evenodd" d="M21 41.214C9.712 41.214.588 32.09.588 20.802.588 9.514 9.712.39 21 .39c11.288 0 20.412 9.124 20.412 20.412 0 11.288-9.124 20.412-20.412 20.412z"/></svg></svg><svg width="198" height="33" xmlns="http://www.w3.org/2000/svg" xmlns:xlink="http://www.w3.org/1999/xlink" xmlns:svgjs="http://svgjs.com/svgjs" viewBox="0 0.502 198 31.995" fill="#ff7eb8" x="1407" y="1465"><svg xmlns="http://www.w3.org/2000/svg" xmlns:xlink="http://www.w3.org/1999/xlink" width="198" height="33" viewBox="0.143 0.583 197.714 31.949"><path paint-order="stroke fill markers" fill-rule="evenodd" d="M197.857 32.532V7.497a6.914 6.914 0 0 0-6.914-6.914H7.057A6.914 6.914 0 0 0 .143 7.497v25.035h197.714z"/></svg></svg></svg><svg width="168" height="15" xmlns="http://www.w3.org/2000/svg" xmlns:xlink="http://www.w3.org/1999/xlink" xmlns:svgjs="http://svgjs.com/svgjs" viewBox="1422 1475 168 15" x="1422" y="1475"><svg width="43" height="11" xmlns="http://www.w3.org/2000/svg" xmlns:xlink="http://www.w3.org/1999/xlink" xmlns:svgjs="http://svgjs.com/svgjs" viewBox="1422 1477 43 11" x="1422" y="1477"><svg width="11" height="11" xmlns="http://www.w3.org/2000/svg" xmlns:xlink="http://www.w3.org/1999/xlink" xmlns:svgjs="http://svgjs.com/svgjs" fill="#ff5ba8" x="1422" y="1477"><svg xmlns="http://www.w3.org/2000/svg" xmlns:xlink="http://www.w3.org/1999/xlink" width="11" height="11" viewBox="0.442 0.568 10.049 10.05"><path paint-order="stroke fill markers" fill-rule="evenodd" d="M5.467 10.617A5.02 5.02 0 0 1 .442 5.592 5.02 5.02 0 0 1 5.467.568a5.02 5.02 0 0 1 5.025 5.024 5.02 5.02 0 0 1-5.025 5.025z"/></svg></svg><svg width="11" height="11" xmlns="http://www.w3.org/2000/svg" xmlns:xlink="http://www.w3.org/1999/xlink" xmlns:svgjs="http://svgjs.com/svgjs" fill="#fff" x="1438" y="1477"><svg xmlns="http://www.w3.org/2000/svg" xmlns:xlink="http://www.w3.org/1999/xlink" width="11" height="11" viewBox="0.483 0.568 10.049 10.05"><path paint-order="stroke fill markers" fill-rule="evenodd" d="M5.508 10.617A5.02 5.02 0 0 1 .483 5.592 5.02 5.02 0 0 1 5.508.568a5.02 5.02 0 0 1 5.025 5.024 5.02 5.02 0 0 1-5.025 5.025z"/></svg></svg><svg width="11" height="11" xmlns="http://www.w3.org/2000/svg" xmlns:xlink="http://www.w3.org/1999/xlink" xmlns:svgjs="http://svgjs.com/svgjs" fill="#02ffb3" x="1454" y="1477"><svg xmlns="http://www.w3.org/2000/svg" xmlns:xlink="http://www.w3.org/1999/xlink" width="11" height="11" viewBox="0.524 0.568 10.049 10.05"><path paint-order="stroke fill markers" fill-rule="evenodd" d="M5.549 10.617A5.02 5.02 0 0 1 .524 5.592 5.02 5.02 0 0 1 5.549.568a5.02 5.02 0 0 1 5.024 5.024 5.02 5.02 0 0 1-5.024 5.025z"/></svg></svg></svg><svg width="66" height="13" xmlns="http://www.w3.org/2000/svg" xmlns:xlink="http://www.w3.org/1999/xlink" xmlns:svgjs="http://svgjs.com/svgjs" viewBox="0 0.774 66 11.453" fill="#ffdbed" x="1524" y="1476"><svg xmlns="http://www.w3.org/2000/svg" xmlns:xlink="http://www.w3.org/1999/xlink" width="66" height="13" viewBox="0.492 0.947 65.065 11.291"><path paint-order="stroke fill markers" fill-rule="evenodd" d="M63.252 12.238H.492V.947h62.761a2.305 2.305 0 0 1 2.305 2.305v6.681a2.305 2.305 0 0 1-2.306 2.305z"/></svg></svg><svg width="15" height="15" xmlns="http://www.w3.org/2000/svg" xmlns:xlink="http://www.w3.org/1999/xlink" xmlns:svgjs="http://svgjs.com/svgjs" viewBox="0 0 14.999 15" fill="#fff" x="1514" y="1475"><svg xmlns="http://www.w3.org/2000/svg" xmlns:xlink="http://www.w3.org/1999/xlink" width="15" height="15" viewBox="0.136 0.263 14.658 14.659"><path paint-order="stroke fill markers" fill-rule="evenodd" d="M10.801 2.09a6.256 6.256 0 0 0-8.838 0 6.256 6.256 0 0 0 0 8.838c1.861 1.86 4.611 2.295 6.893 1.314l2.004 2.005a2.305 2.305 0 0 0 3.26-3.26l-2.005-2.004c.982-2.282.547-5.032-1.314-6.893zM5.223 5.35c.639-.64 1.68-.64 2.319 0 .639.639.639 1.68 0 2.319-.64.639-1.68.639-2.319 0-.64-.64-.64-1.68 0-2.32z"/></svg></svg></svg></svg><svg width="170" height="128" xmlns="http://www.w3.org/2000/svg" xmlns:xlink="http://www.w3.org/1999/xlink" xmlns:svgjs="http://svgjs.com/svgjs" viewBox="1421 1512 170 128" x="1421" y="1512"><svg width="78" height="128" xmlns="http://www.w3.org/2000/svg" xmlns:xlink="http://www.w3.org/1999/xlink" xmlns:svgjs="http://svgjs.com/svgjs" viewBox="1421 1512 78 128" x="1421" y="1512"><svg width="78" height="128" xmlns="http://www.w3.org/2000/svg" xmlns:xlink="http://www.w3.org/1999/xlink" xmlns:svgjs="http://svgjs.com/svgjs" viewBox="1421 1512 78 128" x="1421" y="1512"><svg width="78" height="128" xmlns="http://www.w3.org/2000/svg" xmlns:xlink="http://www.w3.org/1999/xlink" xmlns:svgjs="http://svgjs.com/svgjs" viewBox="0.621 0 76.758 128" fill="#9fb0fe" x="1421" y="1512"><svg xmlns="http://www.w3.org/2000/svg" xmlns:xlink="http://www.w3.org/1999/xlink" width="78" height="128" viewBox="0.934 0.642 76.322 127.274"><path paint-order="stroke fill markers" fill-rule="evenodd" d="M77.256 5.251v118.056a4.61 4.61 0 0 1-4.61 4.609H5.545a4.61 4.61 0 0 1-4.61-4.61V5.252a4.611 4.611 0 0 1 4.61-4.61h67.103a4.611 4.611 0 0 1 4.61 4.61z"/></svg></svg><svg width="14" height="39" xmlns="http://www.w3.org/2000/svg" xmlns:xlink="http://www.w3.org/1999/xlink" xmlns:svgjs="http://svgjs.com/svgjs" viewBox="0.463 0 13.075 39" fill="#8399fe" x="1485" y="1571"><svg xmlns="http://www.w3.org/2000/svg" xmlns:xlink="http://www.w3.org/1999/xlink" width="14" height="39" viewBox="0.59 0.909 12.667 37.783"><path paint-order="stroke fill markers" fill-rule="evenodd" d="M13.256.909v37.783C5.821 35.646.59 28.335.59 19.803S5.82 3.961 13.256.91z"/></svg></svg><svg width="78" height="38" xmlns="http://www.w3.org/2000/svg" xmlns:xlink="http://www.w3.org/1999/xlink" xmlns:svgjs="http://svgjs.com/svgjs" viewBox="0.189 0 77.622 38" fill="#8399fe" x="1421" y="1602"><svg xmlns="http://www.w3.org/2000/svg" xmlns:xlink="http://www.w3.org/1999/xlink" width="78" height="38" viewBox="0.934 0.552 76.322 37.364"><path paint-order="stroke fill markers" fill-rule="evenodd" d="M77.256.552v32.754a4.611 4.611 0 0 1-4.61 4.61H5.545a4.611 4.611 0 0 1-4.61-4.61V.552h76.322z"/></svg></svg><svg width="78" height="98" xmlns="http://www.w3.org/2000/svg" xmlns:xlink="http://www.w3.org/1999/xlink" xmlns:svgjs="http://svgjs.com/svgjs" viewBox="1421 1512 78 98" x="1421" y="1512"><svg width="10" height="8" xmlns="http://www.w3.org/2000/svg" xmlns:xlink="http://www.w3.org/1999/xlink" xmlns:svgjs="http://svgjs.com/svgjs" viewBox="0 0.01 10 7.98" fill="#6583fe" x="1489" y="1602"><svg xmlns="http://www.w3.org/2000/svg" xmlns:xlink="http://www.w3.org/1999/xlink" width="10" height="8" viewBox="0.309 0.552 8.947 7.14"><path paint-order="stroke fill markers" fill-rule="evenodd" d="M9.256.552v7.14A20.45 20.45 0 0 1 .31.552h8.947z"/></svg></svg><svg width="78" height="16" xmlns="http://www.w3.org/2000/svg" xmlns:xlink="http://www.w3.org/1999/xlink" xmlns:svgjs="http://svgjs.com/svgjs" viewBox="0 0.577 78 14.845" fill="#6583fe" x="1421" y="1512"><svg xmlns="http://www.w3.org/2000/svg" xmlns:xlink="http://www.w3.org/1999/xlink" width="78" height="16" viewBox="0.935 0.643 76.322 14.526"><path paint-order="stroke fill markers" fill-rule="evenodd" d="M77.257 15.168H.935V5.252a4.61 4.61 0 0 1 4.61-4.61h67.102a4.61 4.61 0 0 1 4.61 4.61v9.916z"/></svg></svg></svg></svg><svg width="32" height="32" xmlns="http://www.w3.org/2000/svg" xmlns:xlink="http://www.w3.org/1999/xlink" xmlns:svgjs="http://svgjs.com/svgjs" viewBox="1444 1542 32 32" x="1444" y="1542"><svg width="32" height="32" xmlns="http://www.w3.org/2000/svg" xmlns:xlink="http://www.w3.org/1999/xlink" xmlns:svgjs="http://svgjs.com/svgjs" fill="#02ffb3" x="1444" y="1542"><svg xmlns="http://www.w3.org/2000/svg" xmlns:xlink="http://www.w3.org/1999/xlink" width="32" height="32" viewBox="0.585 0.16 31.022 31.022"><path paint-order="stroke fill markers" fill-rule="evenodd" d="M16.096 31.182c-8.578 0-15.51-6.933-15.51-15.51C.585 7.093 7.517.16 16.095.16s15.511 6.934 15.511 15.511c0 8.578-6.933 15.511-15.51 15.511z"/></svg></svg><svg width="16" height="23" xmlns="http://www.w3.org/2000/svg" xmlns:xlink="http://www.w3.org/1999/xlink" xmlns:svgjs="http://svgjs.com/svgjs" viewBox="0.116 0 15.768 23" fill="#fff" x="1452" y="1550"><svg xmlns="http://www.w3.org/2000/svg" xmlns:xlink="http://www.w3.org/1999/xlink" width="16" height="23" viewBox="0.438 0.54 15.317 22.342"><path paint-order="stroke fill markers" fill-rule="evenodd" d="M15.755 8.196c0-4.222-3.438-7.656-7.66-7.656C3.871.54.437 3.974.437 8.196c0 2.083.84 3.973 2.19 5.356a7.628 7.628 0 0 0-2.19 5.351v2.26a15.461 15.461 0 0 0 4.61 1.718v-3.978a3.05 3.05 0 0 1 6.098 0v3.978a15.458 15.458 0 0 0 4.609-1.719v-2.259a7.612 7.612 0 0 0-2.194-5.351 7.632 7.632 0 0 0 2.194-5.356zm-7.66 3.051a3.054 3.054 0 0 1-3.048-3.051 3.053 3.053 0 0 1 3.047-3.047 3.054 3.054 0 0 1 3.052 3.047 3.055 3.055 0 0 1-3.052 3.051z"/></svg></svg></svg><svg width="46" height="93" xmlns="http://www.w3.org/2000/svg" xmlns:xlink="http://www.w3.org/1999/xlink" xmlns:svgjs="http://svgjs.com/svgjs" viewBox="1444 1532 46 93" x="1444" y="1532"><svg width="33" height="6" xmlns="http://www.w3.org/2000/svg" xmlns:xlink="http://www.w3.org/1999/xlink" xmlns:svgjs="http://svgjs.com/svgjs" viewBox="1444 1581 33 6" x="1444" y="1581"><svg width="33" height="6" xmlns="http://www.w3.org/2000/svg" xmlns:xlink="http://www.w3.org/1999/xlink" xmlns:svgjs="http://svgjs.com/svgjs" viewBox="0 0.632 33 4.736" fill="#4369fd" x="1444" y="1581"><svg xmlns="http://www.w3.org/2000/svg" xmlns:xlink="http://www.w3.org/1999/xlink" width="33" height="6" viewBox="0.037 0.475 32.119 4.61"><path paint-order="stroke fill markers" fill-rule="evenodd" d="M29.85 5.085H2.341a2.305 2.305 0 0 1 0-4.61h27.51a2.305 2.305 0 0 1 0 4.61z"/></svg></svg></svg><svg width="33" height="6" xmlns="http://www.w3.org/2000/svg" xmlns:xlink="http://www.w3.org/1999/xlink" xmlns:svgjs="http://svgjs.com/svgjs" viewBox="1444 1610 33 6" x="1444" y="1610"><svg width="33" height="6" xmlns="http://www.w3.org/2000/svg" xmlns:xlink="http://www.w3.org/1999/xlink" xmlns:svgjs="http://svgjs.com/svgjs" viewBox="0 0.632 33 4.736" fill="#fff" x="1444" y="1610"><svg xmlns="http://www.w3.org/2000/svg" xmlns:xlink="http://www.w3.org/1999/xlink" width="33" height="6" viewBox="0.037 0.856 32.119 4.609"><path paint-order="stroke fill markers" fill-rule="evenodd" d="M29.85 5.465H2.341a2.305 2.305 0 0 1 0-4.609h27.51a2.305 2.305 0 0 1 0 4.61z"/></svg></svg></svg><svg width="33" height="6" xmlns="http://www.w3.org/2000/svg" xmlns:xlink="http://www.w3.org/1999/xlink" xmlns:svgjs="http://svgjs.com/svgjs" viewBox="1444 1619 33 6" x="1444" y="1619"><svg width="33" height="6" xmlns="http://www.w3.org/2000/svg" xmlns:xlink="http://www.w3.org/1999/xlink" xmlns:svgjs="http://svgjs.com/svgjs" viewBox="0 0.632 33 4.736" fill="#fff" x="1444" y="1619"><svg xmlns="http://www.w3.org/2000/svg" xmlns:xlink="http://www.w3.org/1999/xlink" width="33" height="6" viewBox="0.037 0.659 32.119 4.61"><path paint-order="stroke fill markers" fill-rule="evenodd" d="M29.85 5.269H2.341a2.305 2.305 0 0 1 0-4.61h27.51a2.305 2.305 0 0 1 0 4.61z"/></svg></svg></svg><svg width="15" height="6" xmlns="http://www.w3.org/2000/svg" xmlns:xlink="http://www.w3.org/1999/xlink" xmlns:svgjs="http://svgjs.com/svgjs" viewBox="1444 1589 15 6" x="1444" y="1589"><svg width="15" height="6" xmlns="http://www.w3.org/2000/svg" xmlns:xlink="http://www.w3.org/1999/xlink" xmlns:svgjs="http://svgjs.com/svgjs" viewBox="0 0.555 15 4.889" fill="#4369fd" x="1444" y="1589"><svg xmlns="http://www.w3.org/2000/svg" xmlns:xlink="http://www.w3.org/1999/xlink" width="15" height="6" viewBox="0.037 0.521 14.142 4.61"><path paint-order="stroke fill markers" fill-rule="evenodd" d="M11.874 5.13H2.341a2.305 2.305 0 0 1 0-4.609h9.533a2.305 2.305 0 0 1 0 4.61z"/></svg></svg></svg><svg width="11" height="12" xmlns="http://www.w3.org/2000/svg" xmlns:xlink="http://www.w3.org/1999/xlink" xmlns:svgjs="http://svgjs.com/svgjs" viewBox="1479 1532 11 12" x="1479" y="1532"><svg width="11" height="5" xmlns="http://www.w3.org/2000/svg" xmlns:xlink="http://www.w3.org/1999/xlink" xmlns:svgjs="http://svgjs.com/svgjs" viewBox="1479 1532 11 5" x="1479" y="1532"><svg width="11" height="5" xmlns="http://www.w3.org/2000/svg" xmlns:xlink="http://www.w3.org/1999/xlink" xmlns:svgjs="http://svgjs.com/svgjs" viewBox="0.079 0 10.841 5" fill="#fff" x="1479" y="1532"><svg xmlns="http://www.w3.org/2000/svg" xmlns:xlink="http://www.w3.org/1999/xlink" width="11" height="5" viewBox="0.507 0.179 9.994 4.609"><path paint-order="stroke fill markers" fill-rule="evenodd" d="M8.196 4.788H2.812a2.305 2.305 0 0 1 0-4.61h5.384a2.305 2.305 0 0 1 0 4.61z"/></svg></svg></svg><svg width="11" height="5" xmlns="http://www.w3.org/2000/svg" xmlns:xlink="http://www.w3.org/1999/xlink" xmlns:svgjs="http://svgjs.com/svgjs" viewBox="1479 1539 11 5" x="1479" y="1539"><svg width="11" height="5" xmlns="http://www.w3.org/2000/svg" xmlns:xlink="http://www.w3.org/1999/xlink" xmlns:svgjs="http://svgjs.com/svgjs" viewBox="0.08 0 10.84 5" fill="#fff" x="1479" y="1539"><svg xmlns="http://www.w3.org/2000/svg" xmlns:xlink="http://www.w3.org/1999/xlink" width="11" height="5" viewBox="0.507 0.317 9.994 4.61"><path paint-order="stroke fill markers" fill-rule="evenodd" d="M8.196 4.926H2.812a2.305 2.305 0 0 1 0-4.61h5.384a2.305 2.305 0 0 1 0 4.61z"/></svg></svg></svg></svg></svg><svg width="5" height="5" xmlns="http://www.w3.org/2000/svg" xmlns:xlink="http://www.w3.org/1999/xlink" xmlns:svgjs="http://svgjs.com/svgjs" viewBox="1431 1532 5 5" x="1431" y="1532"><svg width="5" height="5" xmlns="http://www.w3.org/2000/svg" xmlns:xlink="http://www.w3.org/1999/xlink" xmlns:svgjs="http://svgjs.com/svgjs" fill="#fff" x="1431" y="1532"><svg xmlns="http://www.w3.org/2000/svg" xmlns:xlink="http://www.w3.org/1999/xlink" width="5" height="5" viewBox="0.06 0.178 4.611 4.611"><path paint-order="stroke fill markers" fill-rule="evenodd" d="M2.366 4.79A2.304 2.304 0 0 1 .06 2.482 2.304 2.304 0 0 1 2.366.178 2.303 2.303 0 0 1 4.67 2.483 2.304 2.304 0 0 1 2.366 4.79z"/></svg></svg></svg></svg><svg width="78" height="128" xmlns="http://www.w3.org/2000/svg" xmlns:xlink="http://www.w3.org/1999/xlink" xmlns:svgjs="http://svgjs.com/svgjs" viewBox="1513 1512 78 128" x="1513" y="1512"><svg width="78" height="128" xmlns="http://www.w3.org/2000/svg" xmlns:xlink="http://www.w3.org/1999/xlink" xmlns:svgjs="http://svgjs.com/svgjs" viewBox="1513 1512 78 128" x="1513" y="1512"><svg width="78" height="128" xmlns="http://www.w3.org/2000/svg" xmlns:xlink="http://www.w3.org/1999/xlink" xmlns:svgjs="http://svgjs.com/svgjs" viewBox="0.621 0 76.758 128" fill="#97ffd2" x="1513" y="1512"><svg xmlns="http://www.w3.org/2000/svg" xmlns:xlink="http://www.w3.org/1999/xlink" width="78" height="128" viewBox="0.744 0.642 76.322 127.274"><path paint-order="stroke fill markers" fill-rule="evenodd" d="M77.066 5.251v118.056a4.61 4.61 0 0 1-4.61 4.609H5.353a4.61 4.61 0 0 1-4.61-4.61V5.252a4.611 4.611 0 0 1 4.61-4.61h67.103a4.611 4.611 0 0 1 4.61 4.61z"/></svg></svg><svg width="14" height="39" xmlns="http://www.w3.org/2000/svg" xmlns:xlink="http://www.w3.org/1999/xlink" xmlns:svgjs="http://svgjs.com/svgjs" viewBox="0.463 0 13.075 39" fill="#02ffb3" x="1513" y="1571"><svg xmlns="http://www.w3.org/2000/svg" xmlns:xlink="http://www.w3.org/1999/xlink" width="14" height="39" viewBox="0.744 0.909 12.667 37.783"><path paint-order="stroke fill markers" fill-rule="evenodd" d="M13.41 19.803c0 8.532-5.231 15.843-12.666 18.89V.908C8.179 3.961 13.41 11.271 13.41 19.803z"/></svg></svg><svg width="78" height="38" xmlns="http://www.w3.org/2000/svg" xmlns:xlink="http://www.w3.org/1999/xlink" xmlns:svgjs="http://svgjs.com/svgjs" viewBox="0.189 0 77.622 38" fill="#01eca5" x="1513" y="1602"><svg xmlns="http://www.w3.org/2000/svg" xmlns:xlink="http://www.w3.org/1999/xlink" width="78" height="38" viewBox="0.744 0.552 76.322 37.364"><path paint-order="stroke fill markers" fill-rule="evenodd" d="M77.066.552v32.754a4.611 4.611 0 0 1-4.61 4.61H5.353a4.611 4.611 0 0 1-4.61-4.61V.552h76.323z"/></svg></svg><svg width="10" height="8" xmlns="http://www.w3.org/2000/svg" xmlns:xlink="http://www.w3.org/1999/xlink" xmlns:svgjs="http://svgjs.com/svgjs" viewBox="0 0.01 10 7.98" fill="#00d890" x="1513" y="1602"><svg xmlns="http://www.w3.org/2000/svg" xmlns:xlink="http://www.w3.org/1999/xlink" width="10" height="8" viewBox="0.744 0.552 8.947 7.14"><path paint-order="stroke fill markers" fill-rule="evenodd" d="M9.69.552a20.45 20.45 0 0 1-8.946 7.14V.552H9.69z"/></svg></svg><svg width="78" height="16" xmlns="http://www.w3.org/2000/svg" xmlns:xlink="http://www.w3.org/1999/xlink" xmlns:svgjs="http://svgjs.com/svgjs" viewBox="0 0.577 78 14.845" fill="#01eca5" x="1513" y="1512"><svg xmlns="http://www.w3.org/2000/svg" xmlns:xlink="http://www.w3.org/1999/xlink" width="78" height="16" viewBox="0.743 0.643 76.322 14.526"><path paint-order="stroke fill markers" fill-rule="evenodd" d="M77.065 15.168H.743V5.252a4.61 4.61 0 0 1 4.61-4.61h67.102a4.61 4.61 0 0 1 4.61 4.61v9.916z"/></svg></svg></svg><svg width="32" height="32" xmlns="http://www.w3.org/2000/svg" xmlns:xlink="http://www.w3.org/1999/xlink" xmlns:svgjs="http://svgjs.com/svgjs" viewBox="1536 1542 32 32" x="1536" y="1542"><svg width="32" height="32" xmlns="http://www.w3.org/2000/svg" xmlns:xlink="http://www.w3.org/1999/xlink" xmlns:svgjs="http://svgjs.com/svgjs" fill="#ff7eb8" x="1536" y="1542"><svg xmlns="http://www.w3.org/2000/svg" xmlns:xlink="http://www.w3.org/1999/xlink" width="32" height="32" viewBox="0.393 0.16 31.022 31.022"><path paint-order="stroke fill markers" fill-rule="evenodd" d="M15.904 31.182C7.326 31.182.393 24.25.393 15.672.393 7.093 7.326.16 15.903.16c8.578 0 15.512 6.934 15.512 15.511 0 8.578-6.934 15.511-15.511 15.511z"/></svg></svg><svg width="16" height="23" xmlns="http://www.w3.org/2000/svg" xmlns:xlink="http://www.w3.org/1999/xlink" xmlns:svgjs="http://svgjs.com/svgjs" viewBox="0.116 0 15.768 23" fill="#fff" x="1544" y="1550"><svg xmlns="http://www.w3.org/2000/svg" xmlns:xlink="http://www.w3.org/1999/xlink" width="16" height="23" viewBox="0.246 0.54 15.317 22.342"><path paint-order="stroke fill markers" fill-rule="evenodd" d="M15.563 8.196c0-4.222-3.439-7.656-7.66-7.656C3.68.54.245 3.974.245 8.196c0 2.083.84 3.973 2.19 5.356a7.628 7.628 0 0 0-2.19 5.351v2.26a15.458 15.458 0 0 0 4.61 1.718v-3.978a3.05 3.05 0 0 1 6.098 0v3.978a15.461 15.461 0 0 0 4.61-1.719v-2.259a7.612 7.612 0 0 0-2.195-5.351 7.632 7.632 0 0 0 2.194-5.356zm-7.66 3.051a3.054 3.054 0 0 1-3.047-3.051 3.053 3.053 0 0 1 3.046-3.047 3.054 3.054 0 0 1 3.052 3.047 3.055 3.055 0 0 1-3.052 3.051z"/></svg></svg></svg><svg width="47" height="93" xmlns="http://www.w3.org/2000/svg" xmlns:xlink="http://www.w3.org/1999/xlink" xmlns:svgjs="http://svgjs.com/svgjs" viewBox="1535 1532 47 93" x="1535" y="1532"><svg width="33" height="6" xmlns="http://www.w3.org/2000/svg" xmlns:xlink="http://www.w3.org/1999/xlink" xmlns:svgjs="http://svgjs.com/svgjs" viewBox="1535 1581 33 6" x="1535" y="1581"><svg width="33" height="6" xmlns="http://www.w3.org/2000/svg" xmlns:xlink="http://www.w3.org/1999/xlink" xmlns:svgjs="http://svgjs.com/svgjs" viewBox="0 0.632 33 4.736" fill="#ff7eb8" x="1535" y="1581"><svg xmlns="http://www.w3.org/2000/svg" xmlns:xlink="http://www.w3.org/1999/xlink" width="33" height="6" viewBox="0.845 0.475 32.119 4.61"><path paint-order="stroke fill markers" fill-rule="evenodd" d="M30.659 5.085H3.149a2.305 2.305 0 0 1 0-4.61h27.51a2.305 2.305 0 0 1 0 4.61z"/></svg></svg></svg><svg width="33" height="6" xmlns="http://www.w3.org/2000/svg" xmlns:xlink="http://www.w3.org/1999/xlink" xmlns:svgjs="http://svgjs.com/svgjs" viewBox="1535 1610 33 6" x="1535" y="1610"><svg width="33" height="6" xmlns="http://www.w3.org/2000/svg" xmlns:xlink="http://www.w3.org/1999/xlink" xmlns:svgjs="http://svgjs.com/svgjs" viewBox="0 0.632 33 4.736" fill="#fff" x="1535" y="1610"><svg xmlns="http://www.w3.org/2000/svg" xmlns:xlink="http://www.w3.org/1999/xlink" width="33" height="6" viewBox="0.845 0.856 32.119 4.609"><path paint-order="stroke fill markers" fill-rule="evenodd" d="M30.659 5.465H3.149a2.305 2.305 0 0 1 0-4.609h27.51a2.305 2.305 0 0 1 0 4.61z"/></svg></svg></svg><svg width="33" height="6" xmlns="http://www.w3.org/2000/svg" xmlns:xlink="http://www.w3.org/1999/xlink" xmlns:svgjs="http://svgjs.com/svgjs" viewBox="1535 1619 33 6" x="1535" y="1619"><svg width="33" height="6" xmlns="http://www.w3.org/2000/svg" xmlns:xlink="http://www.w3.org/1999/xlink" xmlns:svgjs="http://svgjs.com/svgjs" viewBox="0 0.632 33 4.736" fill="#fff" x="1535" y="1619"><svg xmlns="http://www.w3.org/2000/svg" xmlns:xlink="http://www.w3.org/1999/xlink" width="33" height="6" viewBox="0.845 0.659 32.119 4.61"><path paint-order="stroke fill markers" fill-rule="evenodd" d="M30.659 5.269H3.149a2.305 2.305 0 0 1 0-4.61h27.51a2.305 2.305 0 0 1 0 4.61z"/></svg></svg></svg><svg width="15" height="6" xmlns="http://www.w3.org/2000/svg" xmlns:xlink="http://www.w3.org/1999/xlink" xmlns:svgjs="http://svgjs.com/svgjs" viewBox="1535 1589 15 6" x="1535" y="1589"><svg width="15" height="6" xmlns="http://www.w3.org/2000/svg" xmlns:xlink="http://www.w3.org/1999/xlink" xmlns:svgjs="http://svgjs.com/svgjs" viewBox="0 0.555 15 4.889" fill="#ff7eb8" x="1535" y="1589"><svg xmlns="http://www.w3.org/2000/svg" xmlns:xlink="http://www.w3.org/1999/xlink" width="15" height="6" viewBox="0.845 0.521 14.142 4.61"><path paint-order="stroke fill markers" fill-rule="evenodd" d="M12.682 5.13H3.149a2.305 2.305 0 0 1 0-4.609h9.533a2.305 2.305 0 0 1 0 4.61z"/></svg></svg></svg><svg width="11" height="12" xmlns="http://www.w3.org/2000/svg" xmlns:xlink="http://www.w3.org/1999/xlink" xmlns:svgjs="http://svgjs.com/svgjs" viewBox="1571 1532 11 12" x="1571" y="1532"><svg width="11" height="5" xmlns="http://www.w3.org/2000/svg" xmlns:xlink="http://www.w3.org/1999/xlink" xmlns:svgjs="http://svgjs.com/svgjs" viewBox="1571 1532 11 5" x="1571" y="1532"><svg width="11" height="5" xmlns="http://www.w3.org/2000/svg" xmlns:xlink="http://www.w3.org/1999/xlink" xmlns:svgjs="http://svgjs.com/svgjs" viewBox="0.079 0 10.841 5" fill="#fff" x="1571" y="1532"><svg xmlns="http://www.w3.org/2000/svg" xmlns:xlink="http://www.w3.org/1999/xlink" width="11" height="5" viewBox="0.315 0.179 9.994 4.609"><path paint-order="stroke fill markers" fill-rule="evenodd" d="M8.004 4.788H2.62a2.305 2.305 0 0 1 0-4.61h5.384a2.305 2.305 0 0 1 0 4.61z"/></svg></svg></svg><svg width="11" height="5" xmlns="http://www.w3.org/2000/svg" xmlns:xlink="http://www.w3.org/1999/xlink" xmlns:svgjs="http://svgjs.com/svgjs" viewBox="1571 1539 11 5" x="1571" y="1539"><svg width="11" height="5" xmlns="http://www.w3.org/2000/svg" xmlns:xlink="http://www.w3.org/1999/xlink" xmlns:svgjs="http://svgjs.com/svgjs" viewBox="0.08 0 10.84 5" fill="#fff" x="1571" y="1539"><svg xmlns="http://www.w3.org/2000/svg" xmlns:xlink="http://www.w3.org/1999/xlink" width="11" height="5" viewBox="0.315 0.317 9.994 4.61"><path paint-order="stroke fill markers" fill-rule="evenodd" d="M8.004 4.926H2.62a2.305 2.305 0 0 1 0-4.61h5.384a2.305 2.305 0 0 1 0 4.61z"/></svg></svg></svg></svg></svg><svg width="6" height="5" xmlns="http://www.w3.org/2000/svg" xmlns:xlink="http://www.w3.org/1999/xlink" xmlns:svgjs="http://svgjs.com/svgjs" viewBox="1522 1532 6 5" x="1522" y="1532"><svg width="6" height="5" xmlns="http://www.w3.org/2000/svg" xmlns:xlink="http://www.w3.org/1999/xlink" xmlns:svgjs="http://svgjs.com/svgjs" viewBox="0.5 0 5 5" fill="#fff" x="1522" y="1532"><svg xmlns="http://www.w3.org/2000/svg" xmlns:xlink="http://www.w3.org/1999/xlink" width="6" height="5" viewBox="0.868 0.178 4.611 4.611"><path paint-order="stroke fill markers" fill-rule="evenodd" d="M3.173 4.79A2.304 2.304 0 0 1 .868 2.482 2.303 2.303 0 0 1 3.173.178 2.304 2.304 0 0 1 5.48 2.483 2.304 2.304 0 0 1 3.173 4.79z"/></svg></svg></svg></svg></svg><svg width="42" height="42" xmlns="http://www.w3.org/2000/svg" xmlns:xlink="http://www.w3.org/1999/xlink" xmlns:svgjs="http://svgjs.com/svgjs" fill="#ff7eb8" x="1485" y="1559"><svg xmlns="http://www.w3.org/2000/svg" xmlns:xlink="http://www.w3.org/1999/xlink" width="42" height="42" viewBox="0.588 0.327 40.825 40.824"><path paint-order="stroke fill markers" fill-rule="evenodd" d="M21 41.152C9.712 41.152.588 32.028.588 20.739.588 9.452 9.712.327 21 .327c11.288 0 20.412 9.125 20.412 20.412 0 11.289-9.124 20.413-20.412 20.413z"/></svg></svg><svg width="204" height="180" xmlns="http://www.w3.org/2000/svg" xmlns:xlink="http://www.w3.org/1999/xlink" xmlns:svgjs="http://svgjs.com/svgjs" viewBox="0.24 0 203.52 180" fill="#2626bc" x="1404" y="1463"><svg xmlns="http://www.w3.org/2000/svg" xmlns:xlink="http://www.w3.org/1999/xlink" width="204" height="180" viewBox="0.838 0.279 202.325 178.943"><path paint-order="stroke fill markers" fill-rule="evenodd" d="M193.943.279H10.056C4.973.279.838 4.414.838 9.497v144.857c0 5.084 4.135 9.22 9.218 9.22h5.575v8.733a6.922 6.922 0 0 0 6.914 6.915h67.102a6.922 6.922 0 0 0 6.914-6.915v-8.734h10.877v8.734a6.922 6.922 0 0 0 6.915 6.915h67.102a6.922 6.922 0 0 0 6.914-6.915v-8.734h5.574c5.084 0 9.22-4.135 9.22-9.219V9.497c0-5.083-4.136-9.218-9.22-9.218zM89.647 174.612H22.545a2.307 2.307 0 0 1-2.305-2.305V54.252a2.307 2.307 0 0 1 2.305-2.304h67.102a2.307 2.307 0 0 1 2.305 2.304v42.121c-7.5 3.715-12.669 11.446-12.669 20.367 0 8.92 5.17 16.652 12.67 20.366v35.202a2.307 2.307 0 0 1-2.306 2.304zm108.906-20.258a4.614 4.614 0 0 1-4.61 4.61h-5.574V54.252a6.922 6.922 0 0 0-6.914-6.914h-67.102a6.922 6.922 0 0 0-6.915 6.914v40.434a22.686 22.686 0 0 0-10.877 0V54.252a6.922 6.922 0 0 0-6.914-6.914H22.545a6.922 6.922 0 0 0-6.914 6.914v104.712h-5.575a4.614 4.614 0 0 1-4.609-4.61V9.497a4.614 4.614 0 0 1 4.61-4.609h183.886a4.615 4.615 0 0 1 4.61 4.61v144.856zm-101.992 4.61v-20.17a22.686 22.686 0 0 0 10.877 0v20.17H96.561zm87.199 13.343a2.307 2.307 0 0 1-2.305 2.305h-67.102a2.307 2.307 0 0 1-2.305-2.305v-35.201c7.499-3.715 12.669-11.446 12.669-20.366s-5.17-16.653-12.67-20.367V54.252a2.308 2.308 0 0 1 2.306-2.305h67.102a2.307 2.307 0 0 1 2.305 2.305v118.055zm-63.653-55.567c0 9.984-8.123 18.106-18.107 18.106s-18.107-8.122-18.107-18.106c0-9.985 8.123-18.108 18.107-18.108s18.107 8.123 18.107 18.108z"/></svg></svg><svg width="18" height="26" xmlns="http://www.w3.org/2000/svg" xmlns:xlink="http://www.w3.org/1999/xlink" xmlns:svgjs="http://svgjs.com/svgjs" viewBox="1497 1567 18 26" x="1497" y="1567"><svg width="18" height="12" xmlns="http://www.w3.org/2000/svg" xmlns:xlink="http://www.w3.org/1999/xlink" xmlns:svgjs="http://svgjs.com/svgjs" viewBox="1497 1567 18 12" x="1497" y="1567"><svg width="18" height="12" xmlns="http://www.w3.org/2000/svg" xmlns:xlink="http://www.w3.org/1999/xlink" xmlns:svgjs="http://svgjs.com/svgjs" viewBox="0 0.28 18 11.439" fill="#fff" x="1497" y="1567"><svg xmlns="http://www.w3.org/2000/svg" xmlns:xlink="http://www.w3.org/1999/xlink" width="18" height="12" viewBox="0.497 0.402 17.006 10.807"><path paint-order="stroke fill markers" fill-rule="evenodd" d="M15.198 11.21H2.801a2.304 2.304 0 0 1-1.63-3.935L7.37 1.077a2.305 2.305 0 0 1 3.259 3.259L8.365 6.6h6.833a2.305 2.305 0 0 1 0 4.61z"/></svg></svg></svg><svg width="18" height="12" xmlns="http://www.w3.org/2000/svg" xmlns:xlink="http://www.w3.org/1999/xlink" xmlns:svgjs="http://svgjs.com/svgjs" viewBox="1497 1581 18 12" x="1497" y="1581"><svg width="18" height="12" xmlns="http://www.w3.org/2000/svg" xmlns:xlink="http://www.w3.org/1999/xlink" xmlns:svgjs="http://svgjs.com/svgjs" viewBox="0 0.281 18 11.439" fill="#fff" x="1497" y="1581"><svg xmlns="http://www.w3.org/2000/svg" xmlns:xlink="http://www.w3.org/1999/xlink" width="18" height="12" viewBox="0.497 0.27 17.006 10.808"><path paint-order="stroke fill markers" fill-rule="evenodd" d="M9 11.077a2.304 2.304 0 0 1-1.63-3.934L9.636 4.88H2.802a2.305 2.305 0 1 1 0-4.61h12.396a2.304 2.304 0 0 1 1.63 3.935l-6.198 6.199c-.45.45-1.04.674-1.63.674z"/></svg></svg></svg></svg></svg><svg width="16" height="15" xmlns="http://www.w3.org/2000/svg" xmlns:xlink="http://www.w3.org/1999/xlink" xmlns:svgjs="http://svgjs.com/svgjs" viewBox="0.5 0 15 15" fill="#01eca5" x="1532" y="1441"><svg xmlns="http://www.w3.org/2000/svg" xmlns:xlink="http://www.w3.org/1999/xlink" width="16" height="15" viewBox="0.882 0.021 14.75 14.75"><path paint-order="stroke fill markers" fill-rule="evenodd" d="M8.258 14.771a2.304 2.304 0 0 1-2.305-2.305 2.769 2.769 0 0 0-2.766-2.765 2.305 2.305 0 1 1 0-4.61 2.769 2.769 0 0 0 2.766-2.765 2.304 2.304 0 1 1 4.61 0 2.768 2.768 0 0 0 2.764 2.765 2.304 2.304 0 1 1 0 4.61 2.768 2.768 0 0 0-2.765 2.765 2.305 2.305 0 0 1-2.304 2.305z"/></svg></svg><svg width="14" height="14" xmlns="http://www.w3.org/2000/svg" xmlns:xlink="http://www.w3.org/1999/xlink" xmlns:svgjs="http://svgjs.com/svgjs" fill="#6583fe" x="1512" y="1436"><svg xmlns="http://www.w3.org/2000/svg" xmlns:xlink="http://www.w3.org/1999/xlink" width="14" height="14" viewBox="0.156 0.738 13.175 13.175"><path paint-order="stroke fill markers" fill-rule="evenodd" d="M6.744 13.913A6.595 6.595 0 0 1 .156 7.326 6.595 6.595 0 0 1 6.744.738a6.595 6.595 0 0 1 6.587 6.588 6.595 6.595 0 0 1-6.587 6.587zm0-8.566c-1.091 0-1.979.888-1.979 1.979a1.98 1.98 0 0 0 1.979 1.978A1.98 1.98 0 0 0 8.72 7.326a1.98 1.98 0 0 0-1.977-1.979z"/></svg></svg><svg width="14" height="14" xmlns="http://www.w3.org/2000/svg" xmlns:xlink="http://www.w3.org/1999/xlink" xmlns:svgjs="http://svgjs.com/svgjs" fill="#ff5ba8" x="1400" y="1633"><svg xmlns="http://www.w3.org/2000/svg" xmlns:xlink="http://www.w3.org/1999/xlink" width="14" height="14" viewBox="0.555 0.329 13.175 13.175"><path paint-order="stroke fill markers" fill-rule="evenodd" d="M7.142 13.504A6.595 6.595 0 0 1 .555 6.917 6.595 6.595 0 0 1 7.142.329a6.595 6.595 0 0 1 6.588 6.588 6.595 6.595 0 0 1-6.588 6.587zm0-8.566a1.98 1.98 0 0 0-1.977 1.979 1.98 1.98 0 0 0 1.977 1.978 1.98 1.98 0 0 0 1.979-1.978 1.98 1.98 0 0 0-1.979-1.979z"/></svg></svg><svg width="126" height="213" xmlns="http://www.w3.org/2000/svg" xmlns:xlink="http://www.w3.org/1999/xlink" xmlns:svgjs="http://svgjs.com/svgjs" viewBox="1487 1441 126 213" x="1487" y="1441"><svg width="15" height="15" xmlns="http://www.w3.org/2000/svg" xmlns:xlink="http://www.w3.org/1999/xlink" xmlns:svgjs="http://svgjs.com/svgjs" fill="#01eca5" x="1487" y="1441"><svg xmlns="http://www.w3.org/2000/svg" xmlns:xlink="http://www.w3.org/1999/xlink" width="15" height="15" viewBox="0.196 0.021 14.75 14.75"><path paint-order="stroke fill markers" fill-rule="evenodd" d="M7.57 14.771a2.304 2.304 0 0 1-2.304-2.305 2.768 2.768 0 0 0-2.765-2.765 2.305 2.305 0 1 1 0-4.61 2.769 2.769 0 0 0 2.765-2.765 2.304 2.304 0 1 1 4.61 0A2.768 2.768 0 0 0 12.64 5.09a2.304 2.304 0 1 1 0 4.61 2.768 2.768 0 0 0-2.765 2.765 2.305 2.305 0 0 1-2.305 2.305z"/></svg></svg><svg width="16" height="16" xmlns="http://www.w3.org/2000/svg" xmlns:xlink="http://www.w3.org/1999/xlink" xmlns:svgjs="http://svgjs.com/svgjs" fill="#01eca5" x="1597" y="1638"><svg xmlns="http://www.w3.org/2000/svg" width="16" height="16" viewBox="0.943 0.534 14.75 14.75"><path paint-order="stroke fill markers" fill-rule="evenodd" d="M8.319 15.284a2.304 2.304 0 0 1-2.305-2.305 2.769 2.769 0 0 0-2.766-2.766 2.304 2.304 0 1 1 0-4.609A2.769 2.769 0 0 0 6.014 2.84a2.304 2.304 0 1 1 4.61 0 2.769 2.769 0 0 0 2.765 2.765 2.304 2.304 0 1 1 0 4.61 2.769 2.769 0 0 0-2.766 2.765 2.304 2.304 0 0 1-2.304 2.305z"/></svg></svg></svg></svg>