<svg width="224" height="236" xmlns="http://www.w3.org/2000/svg" xmlns:xlink="http://www.w3.org/1999/xlink" xmlns:svgjs="http://svgjs.com/svgjs" viewBox="848 1427 224 236"><svg width="224" height="192" xmlns="http://www.w3.org/2000/svg" xmlns:xlink="http://www.w3.org/1999/xlink" xmlns:svgjs="http://svgjs.com/svgjs" viewBox="848 1456 224 192" x="848" y="1456"><svg width="224" height="192" xmlns="http://www.w3.org/2000/svg" xmlns:xlink="http://www.w3.org/1999/xlink" xmlns:svgjs="http://svgjs.com/svgjs" viewBox="848 1456 224 192" x="848" y="1456"><svg width="224" height="192" xmlns="http://www.w3.org/2000/svg" xmlns:xlink="http://www.w3.org/1999/xlink" xmlns:svgjs="http://svgjs.com/svgjs" viewBox="848 1456 224 192" x="848" y="1456"><svg width="220" height="177" xmlns="http://www.w3.org/2000/svg" xmlns:xlink="http://www.w3.org/1999/xlink" xmlns:svgjs="http://svgjs.com/svgjs" viewBox="0 0.214 220 176.571" fill="#2626bc" opacity=".102" x="850" y="1471"><svg xmlns="http://www.w3.org/2000/svg" xmlns:xlink="http://www.w3.org/1999/xlink" width="220" height="177" viewBox="0.552 0.395 218.896 175.685"><path paint-order="stroke fill markers" fill-rule="evenodd" d="M211.793 176.08H8.207a7.655 7.655 0 0 1-7.655-7.654V8.05A7.655 7.655 0 0 1 8.207.395h203.586a7.655 7.655 0 0 1 7.655 7.655v160.376a7.655 7.655 0 0 1-7.655 7.655z"/></svg></svg><svg width="220" height="176" xmlns="http://www.w3.org/2000/svg" xmlns:xlink="http://www.w3.org/1999/xlink" xmlns:svgjs="http://svgjs.com/svgjs" viewBox="0.356 0 219.287 176" fill="#fff" x="850" y="1459"><svg xmlns="http://www.w3.org/2000/svg" xmlns:xlink="http://www.w3.org/1999/xlink" width="220" height="176" viewBox="0.552 0.148 218.896 175.686"><path paint-order="stroke fill markers" fill-rule="evenodd" d="M211.793 175.833H8.207a7.655 7.655 0 0 1-7.655-7.655V7.802A7.655 7.655 0 0 1 8.207.148h203.586a7.655 7.655 0 0 1 7.655 7.654v160.376a7.655 7.655 0 0 1-7.655 7.655z"/></svg></svg><svg width="55" height="127" xmlns="http://www.w3.org/2000/svg" xmlns:xlink="http://www.w3.org/1999/xlink" xmlns:svgjs="http://svgjs.com/svgjs" viewBox="0.54 0 53.92 127" fill="#b7c5ff" x="850" y="1508"><svg xmlns="http://www.w3.org/2000/svg" xmlns:xlink="http://www.w3.org/1999/xlink" width="55" height="127" viewBox="0.552 0.589 53.599 126.244"><path paint-order="stroke fill markers" fill-rule="evenodd" d="M8.207 126.833H54.15V.589H.552v118.59a7.654 7.654 0 0 0 7.655 7.654z"/></svg></svg><svg width="97" height="127" xmlns="http://www.w3.org/2000/svg" xmlns:xlink="http://www.w3.org/1999/xlink" xmlns:svgjs="http://svgjs.com/svgjs" viewBox="0.016 0 96.967 127" fill="#d2deff" x="904" y="1508"><svg xmlns="http://www.w3.org/2000/svg" xmlns:xlink="http://www.w3.org/1999/xlink" width="97" height="127" viewBox="0.151 0.589 96.389 126.243"><path paint-order="stroke fill markers" fill-rule="evenodd" d="M.15.589h96.39V126.83H.15V.59z"/></svg></svg><svg width="76" height="72" xmlns="http://www.w3.org/2000/svg" xmlns:xlink="http://www.w3.org/1999/xlink" xmlns:svgjs="http://svgjs.com/svgjs" viewBox="0.489 0 75.022 72" fill="#02ffb3" x="916" y="1563"><svg xmlns="http://www.w3.org/2000/svg" xmlns:xlink="http://www.w3.org/1999/xlink" width="76" height="72" viewBox="0.572 0.326 74.507 71.506"><path paint-order="stroke fill markers" fill-rule="evenodd" d="M75.079 2.877v68.954H.572V2.877A2.552 2.552 0 0 1 3.123.326h69.404a2.553 2.553 0 0 1 2.552 2.551z"/></svg></svg><svg width="57" height="25" xmlns="http://www.w3.org/2000/svg" xmlns:xlink="http://www.w3.org/1999/xlink" xmlns:svgjs="http://svgjs.com/svgjs" viewBox="0 0.359 57 24.282" fill="#00d890" x="928" y="1593"><svg xmlns="http://www.w3.org/2000/svg" xmlns:xlink="http://www.w3.org/1999/xlink" width="57" height="25" viewBox="0.676 0.36 56.088 23.894"><path paint-order="stroke fill markers" fill-rule="evenodd" d="M56.017 19.83L37.293 1.108a2.55 2.55 0 0 0-3.608 0l-10.798 10.8-4.932-4.933a2.552 2.552 0 0 0-3.608 0L1.423 19.899a2.55 2.55 0 1 0 3.608 3.608l11.12-11.119 11.08 11.079a2.542 2.542 0 0 0 1.804.748 2.55 2.55 0 0 0 1.804-4.356l-4.343-4.343 8.993-8.996 16.92 16.92a2.542 2.542 0 0 0 1.804.747 2.55 2.55 0 0 0 1.804-4.356z"/></svg></svg><svg width="220" height="50" xmlns="http://www.w3.org/2000/svg" xmlns:xlink="http://www.w3.org/1999/xlink" xmlns:svgjs="http://svgjs.com/svgjs" viewBox="0 0.155 220 49.691" fill="#02ffb3" x="850" y="1459"><svg xmlns="http://www.w3.org/2000/svg" xmlns:xlink="http://www.w3.org/1999/xlink" width="220" height="50" viewBox="0.552 0.148 218.896 49.441"><path paint-order="stroke fill markers" fill-rule="evenodd" d="M219.448 49.589V7.802a7.655 7.655 0 0 0-7.655-7.654H8.207A7.655 7.655 0 0 0 .552 7.802V49.59h218.896z"/></svg></svg><svg width="70" height="50" xmlns="http://www.w3.org/2000/svg" xmlns:xlink="http://www.w3.org/1999/xlink" xmlns:svgjs="http://svgjs.com/svgjs" viewBox="0.156 0 69.687 50" fill="#97ffd2" x="1000" y="1459"><svg xmlns="http://www.w3.org/2000/svg" xmlns:xlink="http://www.w3.org/1999/xlink" width="70" height="50" viewBox="0.54 0.148 68.909 49.441"><path paint-order="stroke fill markers" fill-rule="evenodd" d="M61.793.148H.54v49.44h68.908V7.803A7.655 7.655 0 0 0 61.793.148z"/></svg></svg><svg width="220" height="36" xmlns="http://www.w3.org/2000/svg" xmlns:xlink="http://www.w3.org/1999/xlink" xmlns:svgjs="http://svgjs.com/svgjs" viewBox="0 0.225 220 35.55" fill="#6583fe" x="850" y="1459"><svg xmlns="http://www.w3.org/2000/svg" xmlns:xlink="http://www.w3.org/1999/xlink" width="220" height="36" viewBox="0.552 0.148 218.896 35.372"><path paint-order="stroke fill markers" fill-rule="evenodd" d="M219.448 35.52V7.801a7.655 7.655 0 0 0-7.655-7.654H8.207A7.655 7.655 0 0 0 .552 7.802V35.52h218.896z"/></svg></svg><svg width="224" height="182" xmlns="http://www.w3.org/2000/svg" xmlns:xlink="http://www.w3.org/1999/xlink" xmlns:svgjs="http://svgjs.com/svgjs" viewBox="0 0.605 224 180.789" fill="#2626bc" x="848" y="1456"><svg xmlns="http://www.w3.org/2000/svg" xmlns:xlink="http://www.w3.org/1999/xlink" width="224" height="182" viewBox="0 0.596 224 180.789"><path paint-order="stroke fill markers" fill-rule="evenodd" d="M213.794 181.384H10.206C4.578 181.384 0 176.806 0 171.178V10.802C0 5.175 4.578.596 10.206.596h203.587C219.421.596 224 5.175 224 10.802v160.376c0 5.628-4.578 10.206-10.206 10.206zM10.206 5.7a5.109 5.109 0 0 0-5.103 5.103v160.376a5.109 5.109 0 0 0 5.103 5.103h203.587a5.109 5.109 0 0 0 5.103-5.103V10.802a5.109 5.109 0 0 0-5.103-5.103H10.206z"/></svg></svg></svg><svg width="186" height="18" xmlns="http://www.w3.org/2000/svg" xmlns:xlink="http://www.w3.org/1999/xlink" xmlns:svgjs="http://svgjs.com/svgjs" viewBox="867 1469 186 18" x="867" y="1469"><svg width="48" height="12" xmlns="http://www.w3.org/2000/svg" xmlns:xlink="http://www.w3.org/1999/xlink" xmlns:svgjs="http://svgjs.com/svgjs" viewBox="867 1472 48 12" x="867" y="1472"><svg width="12" height="12" xmlns="http://www.w3.org/2000/svg" xmlns:xlink="http://www.w3.org/1999/xlink" xmlns:svgjs="http://svgjs.com/svgjs" fill="#ff5ba8" x="867" y="1472"><svg xmlns="http://www.w3.org/2000/svg" xmlns:xlink="http://www.w3.org/1999/xlink" width="12" height="12" viewBox="0.49 0.416 11.126 11.126"><path paint-order="stroke fill markers" fill-rule="evenodd" d="M6.053 11.542A5.558 5.558 0 0 1 .49 5.979 5.558 5.558 0 0 1 6.053.416a5.558 5.558 0 0 1 5.564 5.563 5.558 5.558 0 0 1-5.564 5.563z"/></svg></svg><svg width="12" height="12" xmlns="http://www.w3.org/2000/svg" xmlns:xlink="http://www.w3.org/1999/xlink" xmlns:svgjs="http://svgjs.com/svgjs" fill="#fff" x="885" y="1472"><svg xmlns="http://www.w3.org/2000/svg" xmlns:xlink="http://www.w3.org/1999/xlink" width="12" height="12" viewBox="0.25 0.416 11.126 11.126"><path paint-order="stroke fill markers" fill-rule="evenodd" d="M5.813 11.542A5.558 5.558 0 0 1 .25 5.979 5.558 5.558 0 0 1 5.813.416a5.558 5.558 0 0 1 5.563 5.563 5.558 5.558 0 0 1-5.563 5.563z"/></svg></svg><svg width="12" height="12" xmlns="http://www.w3.org/2000/svg" xmlns:xlink="http://www.w3.org/1999/xlink" xmlns:svgjs="http://svgjs.com/svgjs" fill="#02ffb3" x="903" y="1472"><svg xmlns="http://www.w3.org/2000/svg" xmlns:xlink="http://www.w3.org/1999/xlink" width="12" height="12" viewBox="0.009 0.416 11.126 11.126"><path paint-order="stroke fill markers" fill-rule="evenodd" d="M5.572 11.542A5.558 5.558 0 0 1 .01 5.979 5.558 5.558 0 0 1 5.572.416a5.558 5.558 0 0 1 5.563 5.563 5.558 5.558 0 0 1-5.563 5.563z"/></svg></svg></svg><svg width="73" height="14" xmlns="http://www.w3.org/2000/svg" xmlns:xlink="http://www.w3.org/1999/xlink" xmlns:svgjs="http://svgjs.com/svgjs" viewBox="0 0.666 73 12.668" fill="#d2deff" x="980" y="1471"><svg xmlns="http://www.w3.org/2000/svg" xmlns:xlink="http://www.w3.org/1999/xlink" width="73" height="14" viewBox="0.474 0.728 72.036 12.501"><path paint-order="stroke fill markers" fill-rule="evenodd" d="M69.957 13.229H.474V.729h69.484a2.552 2.552 0 0 1 2.552 2.55v7.399a2.552 2.552 0 0 1-2.553 2.55z"/></svg></svg><svg width="17" height="18" xmlns="http://www.w3.org/2000/svg" xmlns:xlink="http://www.w3.org/1999/xlink" xmlns:svgjs="http://svgjs.com/svgjs" viewBox="0 0.5 17 17.001" fill="#fff" x="969" y="1469"><svg xmlns="http://www.w3.org/2000/svg" xmlns:xlink="http://www.w3.org/1999/xlink" width="17" height="18" viewBox="0.008 0.864 16.228 16.229"><path paint-order="stroke fill markers" fill-rule="evenodd" d="M11.815 2.887a6.926 6.926 0 0 0-9.784 0 6.926 6.926 0 0 0 0 9.785c2.06 2.06 5.105 2.54 7.63 1.455l2.22 2.219a2.552 2.552 0 0 0 3.608-3.609l-2.219-2.219c1.087-2.526.606-5.57-1.455-7.63zM5.64 6.496a1.818 1.818 0 0 1 2.567 0c.708.707.708 1.86 0 2.567a1.817 1.817 0 0 1-2.567 0 1.817 1.817 0 0 1 0-2.567z"/></svg></svg></svg></svg><svg width="76" height="32" xmlns="http://www.w3.org/2000/svg" xmlns:xlink="http://www.w3.org/1999/xlink" xmlns:svgjs="http://svgjs.com/svgjs" viewBox="916 1520 76 32" x="916" y="1520"><svg width="23" height="22" xmlns="http://www.w3.org/2000/svg" xmlns:xlink="http://www.w3.org/1999/xlink" xmlns:svgjs="http://svgjs.com/svgjs" viewBox="0.5 0 22 22" fill="#ff7eb8" x="916" y="1520"><svg xmlns="http://www.w3.org/2000/svg" xmlns:xlink="http://www.w3.org/1999/xlink" width="23" height="22" viewBox="0.574 0.065 21.593 21.593"><path paint-order="stroke fill markers" fill-rule="evenodd" d="M19.615 21.658H3.125a2.552 2.552 0 0 1-2.551-2.552V2.616A2.552 2.552 0 0 1 3.125.065h16.49a2.552 2.552 0 0 1 2.551 2.551v16.49a2.551 2.551 0 0 1-2.551 2.552z"/></svg></svg><svg width="76" height="27" xmlns="http://www.w3.org/2000/svg" xmlns:xlink="http://www.w3.org/1999/xlink" xmlns:svgjs="http://svgjs.com/svgjs" viewBox="916 1525 76 27" x="916" y="1525"><svg width="49" height="6" xmlns="http://www.w3.org/2000/svg" xmlns:xlink="http://www.w3.org/1999/xlink" xmlns:svgjs="http://svgjs.com/svgjs" viewBox="0 0.371 49 5.259" fill="#ff7eb8" x="943" y="1525"><svg xmlns="http://www.w3.org/2000/svg" xmlns:xlink="http://www.w3.org/1999/xlink" width="49" height="6" viewBox="0.528 0.168 47.552 5.103"><path paint-order="stroke fill markers" fill-rule="evenodd" d="M45.529.168H3.08a2.552 2.552 0 0 0 0 5.103H45.53a2.552 2.552 0 0 0 0-5.103z"/></svg></svg><svg width="49" height="6" xmlns="http://www.w3.org/2000/svg" xmlns:xlink="http://www.w3.org/1999/xlink" xmlns:svgjs="http://svgjs.com/svgjs" viewBox="943 1535 49 6" x="943" y="1535"><svg width="49" height="6" xmlns="http://www.w3.org/2000/svg" xmlns:xlink="http://www.w3.org/1999/xlink" xmlns:svgjs="http://svgjs.com/svgjs" viewBox="0 0.371 49 5.259" fill="#6583fe" x="943" y="1535"><svg xmlns="http://www.w3.org/2000/svg" xmlns:xlink="http://www.w3.org/1999/xlink" width="49" height="6" viewBox="0.528 0.623 47.55 5.103"><path paint-order="stroke fill markers" fill-rule="evenodd" d="M45.527.623H3.08a2.552 2.552 0 0 0 0 5.103h42.447a2.552 2.552 0 0 0 0-5.103z"/></svg></svg></svg><svg width="76" height="6" xmlns="http://www.w3.org/2000/svg" xmlns:xlink="http://www.w3.org/1999/xlink" xmlns:svgjs="http://svgjs.com/svgjs" viewBox="916 1546 76 6" x="916" y="1546"><svg width="76" height="6" xmlns="http://www.w3.org/2000/svg" xmlns:xlink="http://www.w3.org/1999/xlink" xmlns:svgjs="http://svgjs.com/svgjs" viewBox="0 0.397 76 5.205" fill="#6583fe" x="916" y="1546"><svg xmlns="http://www.w3.org/2000/svg" xmlns:xlink="http://www.w3.org/1999/xlink" width="76" height="6" viewBox="0.574 0.078 74.505 5.103"><path paint-order="stroke fill markers" fill-rule="evenodd" d="M72.527.078H3.125a2.552 2.552 0 0 0 0 5.104h69.402a2.552 2.552 0 0 0 0-5.104z"/></svg></svg></svg></svg></svg><svg width="48" height="16" xmlns="http://www.w3.org/2000/svg" xmlns:xlink="http://www.w3.org/1999/xlink" xmlns:svgjs="http://svgjs.com/svgjs" viewBox="1009 1517 48 16" x="1009" y="1517"><svg width="29" height="6" xmlns="http://www.w3.org/2000/svg" xmlns:xlink="http://www.w3.org/1999/xlink" xmlns:svgjs="http://svgjs.com/svgjs" viewBox="0 0.324 29 5.352" fill="#8399fe" x="1028" y="1522"><svg xmlns="http://www.w3.org/2000/svg" xmlns:xlink="http://www.w3.org/1999/xlink" width="29" height="6" viewBox="0.402 0.616 27.649 5.103"><path paint-order="stroke fill markers" fill-rule="evenodd" d="M25.5.616H2.953a2.552 2.552 0 0 0 0 5.103H25.5a2.552 2.552 0 0 0 0-5.103z"/></svg></svg><svg width="15" height="16" xmlns="http://www.w3.org/2000/svg" xmlns:xlink="http://www.w3.org/1999/xlink" xmlns:svgjs="http://svgjs.com/svgjs" viewBox="0 0.5 15 15" fill="#ffa8cf" x="1009" y="1517"><svg xmlns="http://www.w3.org/2000/svg" xmlns:xlink="http://www.w3.org/1999/xlink" width="15" height="16" viewBox="0.191 0.868 14.6 14.6"><path paint-order="stroke fill markers" fill-rule="evenodd" d="M7.491 15.468a7.293 7.293 0 0 1-7.3-7.3c0-4.037 3.263-7.3 7.3-7.3s7.3 3.263 7.3 7.3-3.263 7.3-7.3 7.3z"/></svg></svg></svg><svg width="48" height="15" xmlns="http://www.w3.org/2000/svg" xmlns:xlink="http://www.w3.org/1999/xlink" xmlns:svgjs="http://svgjs.com/svgjs" viewBox="1009 1541 48 15" x="1009" y="1541"><svg width="29" height="6" xmlns="http://www.w3.org/2000/svg" xmlns:xlink="http://www.w3.org/1999/xlink" xmlns:svgjs="http://svgjs.com/svgjs" viewBox="0 0.324 29 5.352" fill="#8399fe" x="1028" y="1546"><svg xmlns="http://www.w3.org/2000/svg" xmlns:xlink="http://www.w3.org/1999/xlink" width="29" height="6" viewBox="0.402 0.078 27.649 5.103"><path paint-order="stroke fill markers" fill-rule="evenodd" d="M25.5.078H2.953a2.552 2.552 0 0 0 0 5.104H25.5a2.552 2.552 0 0 0 0-5.104z"/></svg></svg><svg width="15" height="15" xmlns="http://www.w3.org/2000/svg" xmlns:xlink="http://www.w3.org/1999/xlink" xmlns:svgjs="http://svgjs.com/svgjs" fill="#6583fe" x="1009" y="1541"><svg xmlns="http://www.w3.org/2000/svg" xmlns:xlink="http://www.w3.org/1999/xlink" width="15" height="15" viewBox="0.191 0.33 14.6 14.6"><path paint-order="stroke fill markers" fill-rule="evenodd" d="M7.491 14.93a7.293 7.293 0 0 1-7.3-7.3c0-4.037 3.263-7.3 7.3-7.3s7.3 3.263 7.3 7.3-3.263 7.3-7.3 7.3z"/></svg></svg></svg><svg width="48" height="16" xmlns="http://www.w3.org/2000/svg" xmlns:xlink="http://www.w3.org/1999/xlink" xmlns:svgjs="http://svgjs.com/svgjs" viewBox="1009 1564 48 16" x="1009" y="1564"><svg width="29" height="6" xmlns="http://www.w3.org/2000/svg" xmlns:xlink="http://www.w3.org/1999/xlink" xmlns:svgjs="http://svgjs.com/svgjs" viewBox="0 0.324 29 5.353" fill="#8399fe" x="1028" y="1569"><svg xmlns="http://www.w3.org/2000/svg" xmlns:xlink="http://www.w3.org/1999/xlink" width="29" height="6" viewBox="0.402 0.541 27.649 5.103"><path paint-order="stroke fill markers" fill-rule="evenodd" d="M25.5.54H2.953a2.552 2.552 0 0 0 0 5.104H25.5a2.552 2.552 0 0 0 0-5.103z"/></svg></svg><svg width="15" height="16" xmlns="http://www.w3.org/2000/svg" xmlns:xlink="http://www.w3.org/1999/xlink" xmlns:svgjs="http://svgjs.com/svgjs" viewBox="0 0.5 15 15" fill="#02ffb3" x="1009" y="1564"><svg xmlns="http://www.w3.org/2000/svg" xmlns:xlink="http://www.w3.org/1999/xlink" width="15" height="16" viewBox="0.191 0.792 14.6 14.6"><path paint-order="stroke fill markers" fill-rule="evenodd" d="M7.491 15.393a7.293 7.293 0 0 1-7.3-7.3c0-4.038 3.263-7.3 7.3-7.3s7.3 3.262 7.3 7.3c0 4.036-3.263 7.3-7.3 7.3z"/></svg></svg></svg><svg width="48" height="15" xmlns="http://www.w3.org/2000/svg" xmlns:xlink="http://www.w3.org/1999/xlink" xmlns:svgjs="http://svgjs.com/svgjs" viewBox="1009 1588 48 15" x="1009" y="1588"><svg width="29" height="6" xmlns="http://www.w3.org/2000/svg" xmlns:xlink="http://www.w3.org/1999/xlink" xmlns:svgjs="http://svgjs.com/svgjs" viewBox="0 0.324 29 5.352" fill="#8399fe" x="1028" y="1593"><svg xmlns="http://www.w3.org/2000/svg" xmlns:xlink="http://www.w3.org/1999/xlink" width="29" height="6" viewBox="0.402 0.003 27.649 5.103"><path paint-order="stroke fill markers" fill-rule="evenodd" d="M25.5.003H2.953a2.552 2.552 0 0 0 0 5.103H25.5a2.552 2.552 0 0 0 0-5.103z"/></svg></svg><svg width="15" height="15" xmlns="http://www.w3.org/2000/svg" xmlns:xlink="http://www.w3.org/1999/xlink" xmlns:svgjs="http://svgjs.com/svgjs" fill="#02ffb3" x="1009" y="1588"><svg xmlns="http://www.w3.org/2000/svg" xmlns:xlink="http://www.w3.org/1999/xlink" width="15" height="15" viewBox="0.191 0.254 14.6 14.6"><path paint-order="stroke fill markers" fill-rule="evenodd" d="M7.491 14.855a7.294 7.294 0 0 1-7.3-7.3c0-4.038 3.263-7.3 7.3-7.3s7.3 3.262 7.3 7.3c0 4.036-3.263 7.3-7.3 7.3z"/></svg></svg></svg><svg width="48" height="16" xmlns="http://www.w3.org/2000/svg" xmlns:xlink="http://www.w3.org/1999/xlink" xmlns:svgjs="http://svgjs.com/svgjs" viewBox="1009 1611 48 16" x="1009" y="1611"><svg width="29" height="6" xmlns="http://www.w3.org/2000/svg" xmlns:xlink="http://www.w3.org/1999/xlink" xmlns:svgjs="http://svgjs.com/svgjs" viewBox="0 0.324 29 5.352" fill="#8399fe" x="1028" y="1616"><svg xmlns="http://www.w3.org/2000/svg" xmlns:xlink="http://www.w3.org/1999/xlink" width="29" height="6" viewBox="0.402 0.465 27.649 5.103"><path paint-order="stroke fill markers" fill-rule="evenodd" d="M25.5.465H2.953a2.552 2.552 0 0 0 0 5.103H25.5a2.552 2.552 0 0 0 0-5.103z"/></svg></svg><svg width="15" height="16" xmlns="http://www.w3.org/2000/svg" xmlns:xlink="http://www.w3.org/1999/xlink" xmlns:svgjs="http://svgjs.com/svgjs" viewBox="0 0.5 15 15" fill="#ff7eb8" x="1009" y="1611"><svg xmlns="http://www.w3.org/2000/svg" xmlns:xlink="http://www.w3.org/1999/xlink" width="15" height="16" viewBox="0.191 0.717 14.6 14.6"><path paint-order="stroke fill markers" fill-rule="evenodd" d="M7.491 15.317a7.293 7.293 0 0 1-7.3-7.3c0-4.037 3.263-7.3 7.3-7.3s7.3 3.263 7.3 7.3-3.263 7.3-7.3 7.3z"/></svg></svg></svg><svg width="6" height="6" xmlns="http://www.w3.org/2000/svg" xmlns:xlink="http://www.w3.org/1999/xlink" xmlns:svgjs="http://svgjs.com/svgjs" viewBox="982 1567 6 6" x="982" y="1567"><svg width="6" height="6" xmlns="http://www.w3.org/2000/svg" xmlns:xlink="http://www.w3.org/1999/xlink" xmlns:svgjs="http://svgjs.com/svgjs" fill="#00d890" x="982" y="1567"><svg xmlns="http://www.w3.org/2000/svg" xmlns:xlink="http://www.w3.org/1999/xlink" width="6" height="6" viewBox="0.305 0.266 5.105 5.105"><path paint-order="stroke fill markers" fill-rule="evenodd" d="M2.858 5.371A2.55 2.55 0 0 1 .305 2.818 2.55 2.55 0 0 1 2.858.266 2.55 2.55 0 0 1 5.41 2.818a2.55 2.55 0 0 1-2.552 2.553z"/></svg></svg></svg><svg width="31" height="15" xmlns="http://www.w3.org/2000/svg" xmlns:xlink="http://www.w3.org/1999/xlink" xmlns:svgjs="http://svgjs.com/svgjs" viewBox="862 1525 31 15" x="862" y="1525"><svg width="31" height="6" xmlns="http://www.w3.org/2000/svg" xmlns:xlink="http://www.w3.org/1999/xlink" xmlns:svgjs="http://svgjs.com/svgjs" viewBox="862 1525 31 6" x="862" y="1525"><svg width="31" height="6" xmlns="http://www.w3.org/2000/svg" xmlns:xlink="http://www.w3.org/1999/xlink" xmlns:svgjs="http://svgjs.com/svgjs" viewBox="0 0.313 31 5.375" fill="#fff" x="862" y="1525"><svg xmlns="http://www.w3.org/2000/svg" xmlns:xlink="http://www.w3.org/1999/xlink" width="31" height="6" viewBox="0.633 0.043 29.436 5.103"><path paint-order="stroke fill markers" fill-rule="evenodd" d="M27.517 5.147H3.185a2.552 2.552 0 0 1 0-5.104h24.332a2.552 2.552 0 0 1 0 5.104z"/></svg></svg></svg><svg width="31" height="6" xmlns="http://www.w3.org/2000/svg" xmlns:xlink="http://www.w3.org/1999/xlink" xmlns:svgjs="http://svgjs.com/svgjs" viewBox="862 1534 31 6" x="862" y="1534"><svg width="31" height="6" xmlns="http://www.w3.org/2000/svg" xmlns:xlink="http://www.w3.org/1999/xlink" xmlns:svgjs="http://svgjs.com/svgjs" viewBox="0 0.313 31 5.374" fill="#fff" x="862" y="1534"><svg xmlns="http://www.w3.org/2000/svg" xmlns:xlink="http://www.w3.org/1999/xlink" width="31" height="6" viewBox="0.633 0.789 29.436 5.103"><path paint-order="stroke fill markers" fill-rule="evenodd" d="M27.517 5.893H3.185a2.552 2.552 0 0 1 0-5.104h24.332a2.552 2.552 0 0 1 0 5.104z"/></svg></svg></svg></svg><svg width="31" height="16" xmlns="http://www.w3.org/2000/svg" xmlns:xlink="http://www.w3.org/1999/xlink" xmlns:svgjs="http://svgjs.com/svgjs" viewBox="862 1552 31 16" x="862" y="1552"><svg width="31" height="6" xmlns="http://www.w3.org/2000/svg" xmlns:xlink="http://www.w3.org/1999/xlink" xmlns:svgjs="http://svgjs.com/svgjs" viewBox="862 1552 31 6" x="862" y="1552"><svg width="31" height="6" xmlns="http://www.w3.org/2000/svg" xmlns:xlink="http://www.w3.org/1999/xlink" xmlns:svgjs="http://svgjs.com/svgjs" viewBox="0 0.313 31 5.374" fill="#fff" x="862" y="1552"><svg xmlns="http://www.w3.org/2000/svg" xmlns:xlink="http://www.w3.org/1999/xlink" width="31" height="6" viewBox="0.633 0.42 29.436 5.103"><path paint-order="stroke fill markers" fill-rule="evenodd" d="M27.517 5.524H3.185a2.552 2.552 0 0 1 0-5.104h24.332a2.552 2.552 0 0 1 0 5.104z"/></svg></svg></svg><svg width="31" height="6" xmlns="http://www.w3.org/2000/svg" xmlns:xlink="http://www.w3.org/1999/xlink" xmlns:svgjs="http://svgjs.com/svgjs" viewBox="862 1562 31 6" x="862" y="1562"><svg width="31" height="6" xmlns="http://www.w3.org/2000/svg" xmlns:xlink="http://www.w3.org/1999/xlink" xmlns:svgjs="http://svgjs.com/svgjs" viewBox="0 0.313 31 5.374" fill="#fff" x="862" y="1562"><svg xmlns="http://www.w3.org/2000/svg" xmlns:xlink="http://www.w3.org/1999/xlink" width="31" height="6" viewBox="0.633 0.167 29.436 5.103"><path paint-order="stroke fill markers" fill-rule="evenodd" d="M27.517 5.27H3.185a2.552 2.552 0 0 1 0-5.103h24.332a2.552 2.552 0 0 1 0 5.103z"/></svg></svg></svg></svg><svg width="31" height="16" xmlns="http://www.w3.org/2000/svg" xmlns:xlink="http://www.w3.org/1999/xlink" xmlns:svgjs="http://svgjs.com/svgjs" viewBox="862 1579 31 16" x="862" y="1579"><svg width="31" height="6" xmlns="http://www.w3.org/2000/svg" xmlns:xlink="http://www.w3.org/1999/xlink" xmlns:svgjs="http://svgjs.com/svgjs" viewBox="862 1579 31 6" x="862" y="1579"><svg width="31" height="6" xmlns="http://www.w3.org/2000/svg" xmlns:xlink="http://www.w3.org/1999/xlink" xmlns:svgjs="http://svgjs.com/svgjs" viewBox="0 0.313 31 5.374" fill="#fff" x="862" y="1579"><svg xmlns="http://www.w3.org/2000/svg" xmlns:xlink="http://www.w3.org/1999/xlink" width="31" height="6" viewBox="0.633 0.797 29.436 5.103"><path paint-order="stroke fill markers" fill-rule="evenodd" d="M27.517 5.9H3.185a2.552 2.552 0 0 1 0-5.103h24.332a2.552 2.552 0 0 1 0 5.103z"/></svg></svg></svg><svg width="31" height="6" xmlns="http://www.w3.org/2000/svg" xmlns:xlink="http://www.w3.org/1999/xlink" xmlns:svgjs="http://svgjs.com/svgjs" viewBox="862 1589 31 6" x="862" y="1589"><svg width="31" height="6" xmlns="http://www.w3.org/2000/svg" xmlns:xlink="http://www.w3.org/1999/xlink" xmlns:svgjs="http://svgjs.com/svgjs" viewBox="0 0.313 31 5.375" fill="#fff" x="862" y="1589"><svg xmlns="http://www.w3.org/2000/svg" xmlns:xlink="http://www.w3.org/1999/xlink" width="31" height="6" viewBox="0.633 0.543 29.436 5.103"><path paint-order="stroke fill markers" fill-rule="evenodd" d="M27.517 5.647H3.185a2.552 2.552 0 0 1 0-5.104h24.332a2.552 2.552 0 0 1 0 5.104z"/></svg></svg></svg></svg><svg width="31" height="16" xmlns="http://www.w3.org/2000/svg" xmlns:xlink="http://www.w3.org/1999/xlink" xmlns:svgjs="http://svgjs.com/svgjs" viewBox="862 1607 31 16" x="862" y="1607"><svg width="31" height="6" xmlns="http://www.w3.org/2000/svg" xmlns:xlink="http://www.w3.org/1999/xlink" xmlns:svgjs="http://svgjs.com/svgjs" viewBox="862 1607 31 6" x="862" y="1607"><svg width="31" height="6" xmlns="http://www.w3.org/2000/svg" xmlns:xlink="http://www.w3.org/1999/xlink" xmlns:svgjs="http://svgjs.com/svgjs" viewBox="0 0.313 31 5.375" fill="#fff" x="862" y="1607"><svg xmlns="http://www.w3.org/2000/svg" xmlns:xlink="http://www.w3.org/1999/xlink" width="31" height="6" viewBox="0.633 0.174 29.436 5.103"><path paint-order="stroke fill markers" fill-rule="evenodd" d="M27.517 5.278H3.185a2.552 2.552 0 0 1 0-5.104h24.332a2.552 2.552 0 0 1 0 5.104z"/></svg></svg></svg><svg width="31" height="7" xmlns="http://www.w3.org/2000/svg" xmlns:xlink="http://www.w3.org/1999/xlink" xmlns:svgjs="http://svgjs.com/svgjs" viewBox="862 1616 31 7" x="862" y="1616"><svg width="31" height="7" xmlns="http://www.w3.org/2000/svg" xmlns:xlink="http://www.w3.org/1999/xlink" xmlns:svgjs="http://svgjs.com/svgjs" viewBox="0 0.813 31 5.374" fill="#fff" x="862" y="1616"><svg xmlns="http://www.w3.org/2000/svg" xmlns:xlink="http://www.w3.org/1999/xlink" width="31" height="7" viewBox="0.633 0.92 29.436 5.103"><path paint-order="stroke fill markers" fill-rule="evenodd" d="M27.517 6.023H3.185a2.552 2.552 0 0 1 0-5.103h24.332a2.552 2.552 0 0 1 0 5.103z"/></svg></svg></svg></svg></svg><svg width="16" height="16" xmlns="http://www.w3.org/2000/svg" xmlns:xlink="http://www.w3.org/1999/xlink" xmlns:svgjs="http://svgjs.com/svgjs" fill="#6583fe" x="996" y="1436"><svg xmlns="http://www.w3.org/2000/svg" xmlns:xlink="http://www.w3.org/1999/xlink" width="16" height="16" viewBox="0.664 0.729 14.586 14.586"><path paint-order="stroke fill markers" fill-rule="evenodd" d="M7.958 15.316c-4.022 0-7.294-3.272-7.294-7.293C.664 4 3.936.729 7.958.729c4.021 0 7.293 3.272 7.293 7.294 0 4.02-3.272 7.293-7.293 7.293zm0-9.484c-1.207 0-2.19.983-2.19 2.19 0 1.208.983 2.19 2.19 2.19 1.208 0 2.19-.982 2.19-2.19 0-1.207-.982-2.19-2.19-2.19z"/></svg></svg><svg width="16" height="15" xmlns="http://www.w3.org/2000/svg" xmlns:xlink="http://www.w3.org/1999/xlink" xmlns:svgjs="http://svgjs.com/svgjs" viewBox="0.5 0 15 15" fill="#01eca5" x="970" y="1427"><svg xmlns="http://www.w3.org/2000/svg" xmlns:xlink="http://www.w3.org/1999/xlink" width="16" height="15" viewBox="0.445 0.246 14.586 14.586"><path paint-order="stroke fill markers" fill-rule="evenodd" d="M7.738 14.832c-4.022 0-7.293-3.271-7.293-7.293C.445 3.518 3.716.246 7.738.246c4.021 0 7.293 3.272 7.293 7.293 0 4.021-3.272 7.293-7.293 7.293zm0-9.483c-1.207 0-2.19.983-2.19 2.19 0 1.208.983 2.19 2.19 2.19 1.207 0 2.19-.982 2.19-2.19 0-1.207-.983-2.19-2.19-2.19z"/></svg></svg><svg width="18" height="17" xmlns="http://www.w3.org/2000/svg" xmlns:xlink="http://www.w3.org/1999/xlink" xmlns:svgjs="http://svgjs.com/svgjs" viewBox="0.5 0 17 17" fill="#ff5ba8" x="877" y="1646"><svg xmlns="http://www.w3.org/2000/svg" xmlns:xlink="http://www.w3.org/1999/xlink" width="18" height="17" viewBox="0.906 0.081 16.33 16.33"><path paint-order="stroke fill markers" fill-rule="evenodd" d="M9.072 16.41A2.551 2.551 0 0 1 6.52 13.86a3.065 3.065 0 0 0-3.062-3.062 2.551 2.551 0 1 1 0-5.103A3.065 3.065 0 0 0 6.52 2.632a2.55 2.55 0 1 1 5.103 0 3.065 3.065 0 0 0 3.062 3.062 2.551 2.551 0 1 1 0 5.103 3.065 3.065 0 0 0-3.062 3.062 2.551 2.551 0 0 1-2.551 2.552z"/></svg></svg><svg width="18" height="17" xmlns="http://www.w3.org/2000/svg" xmlns:xlink="http://www.w3.org/1999/xlink" xmlns:svgjs="http://svgjs.com/svgjs" viewBox="0.5 0 17 17" fill="#ff5ba8" x="1039" y="1646"><svg xmlns="http://www.w3.org/2000/svg" xmlns:xlink="http://www.w3.org/1999/xlink" width="18" height="17" viewBox="0.675 0.081 16.33 16.33"><path paint-order="stroke fill markers" fill-rule="evenodd" d="M8.84 16.41A2.551 2.551 0 0 1 6.29 13.86a3.065 3.065 0 0 0-3.062-3.062 2.551 2.551 0 1 1 0-5.103 3.065 3.065 0 0 0 3.062-3.062 2.551 2.551 0 1 1 5.103 0 3.065 3.065 0 0 0 3.062 3.062 2.551 2.551 0 1 1 0 5.103 3.065 3.065 0 0 0-3.062 3.062 2.551 2.551 0 0 1-2.551 2.552z"/></svg></svg><svg width="17" height="17" xmlns="http://www.w3.org/2000/svg" xmlns:xlink="http://www.w3.org/1999/xlink" xmlns:svgjs="http://svgjs.com/svgjs" fill="#01eca5" x="1005" y="1646"><svg xmlns="http://www.w3.org/2000/svg" width="17" height="17" viewBox="0.276 0.081 16.33 16.33"><path paint-order="stroke fill markers" fill-rule="evenodd" d="M8.441 16.41A2.551 2.551 0 0 1 5.89 13.86a3.065 3.065 0 0 0-3.062-3.062 2.551 2.551 0 1 1 0-5.103A3.065 3.065 0 0 0 5.89 2.632a2.55 2.55 0 1 1 5.103 0 3.065 3.065 0 0 0 3.061 3.062 2.551 2.551 0 1 1 0 5.103 3.065 3.065 0 0 0-3.061 3.062 2.551 2.551 0 0 1-2.552 2.552z"/></svg></svg></svg>