<svg width="709" height="710" xmlns="http://www.w3.org/2000/svg" xmlns:xlink="http://www.w3.org/1999/xlink" xmlns:svgjs="http://svgjs.com/svgjs" viewBox="0 2229 709 710"><svg width="705" height="710" xmlns="http://www.w3.org/2000/svg" xmlns:xlink="http://www.w3.org/1999/xlink" xmlns:svgjs="http://svgjs.com/svgjs" viewBox="0.074 0 704.853 710" fill="#0d13d7" y="2229"><svg xmlns="http://www.w3.org/2000/svg" xmlns:xlink="http://www.w3.org/1999/xlink" width="705" height="710" viewBox="0 0 704.003 709.144"><path paint-order="stroke fill markers" fill-rule="evenodd" d="M0 0l704.003 196.51v381.627L0 709.143V0z"/></svg></svg><svg width="590" height="591" xmlns="http://www.w3.org/2000/svg" xmlns:xlink="http://www.w3.org/1999/xlink" xmlns:svgjs="http://svgjs.com/svgjs" viewBox="0 0.5 590 590" fill="#fff" opacity=".102" x="119" y="2301"><svg xmlns="http://www.w3.org/2000/svg" xmlns:xlink="http://www.w3.org/1999/xlink" width="590" height="591" viewBox="0 0.597 590 590"><path paint-order="stroke fill markers" fill-rule="evenodd" d="M295 590.597c-163.135 0-295-131.866-295-295 0-163.136 131.865-295 295-295s295 131.864 295 295c0 163.134-131.865 295-295 295z"/></svg></svg><svg width="336" height="337" xmlns="http://www.w3.org/2000/svg" xmlns:xlink="http://www.w3.org/1999/xlink" xmlns:svgjs="http://svgjs.com/svgjs" viewBox="0 0.5 336 336" fill="#fff" opacity=".102" x="246" y="2428"><svg xmlns="http://www.w3.org/2000/svg" width="336" height="337" viewBox="0 0.596 336 336"><path paint-order="stroke fill markers" fill-rule="evenodd" d="M168 336.596c-92.904 0-168-75.096-168-168s75.096-168 168-168 168 75.096 168 168-75.096 168-168 168z"/></svg></svg></svg>