<svg width="250" height="236" xmlns="http://www.w3.org/2000/svg" xmlns:xlink="http://www.w3.org/1999/xlink" xmlns:svgjs="http://svgjs.com/svgjs" viewBox="289 1427 250 236"><svg width="250" height="233" xmlns="http://www.w3.org/2000/svg" xmlns:xlink="http://www.w3.org/1999/xlink" xmlns:svgjs="http://svgjs.com/svgjs" viewBox="289 1427 250 233" x="289" y="1427"><svg width="250" height="233" xmlns="http://www.w3.org/2000/svg" xmlns:xlink="http://www.w3.org/1999/xlink" xmlns:svgjs="http://svgjs.com/svgjs" viewBox="0 0.297 250 232.405" fill="#dcfdee" x="289" y="1427"><svg xmlns="http://www.w3.org/2000/svg" xmlns:xlink="http://www.w3.org/1999/xlink" width="250" height="233" viewBox="0 0.046 250 232.405"><path paint-order="stroke fill markers" fill-rule="evenodd" d="M9.93 56.44c-11.703 19.237-12.936 52.545-4.364 73.366 7.509 18.238 22.445 35.357 42.05 37.501 7.21.789 14.58-.5 21.716.8 24.54 4.468 33.667 34.712 52.739 50.788 13.272 11.188 31.688 15.147 48.913 12.991 17.224-2.155 33.35-9.942 47.547-19.933 11.21-7.89 21.697-17.589 27.228-30.13 11.594-26.289-2.046-57.862-23.235-77.265-6.6-6.044-13.956-11.375-19.47-18.422-5.515-7.048-9.024-16.452-6.397-25.007 2.096-6.824 7.74-12.115 9.877-18.927 2.909-9.27-1.482-19.668-8.693-26.18-7.21-6.51-16.752-9.784-26.204-12.03C132.037-5.424 45.26-1.637 9.93 56.438z"/></svg></svg></svg><svg width="203" height="230" xmlns="http://www.w3.org/2000/svg" xmlns:xlink="http://www.w3.org/1999/xlink" xmlns:svgjs="http://svgjs.com/svgjs" viewBox="309 1433 203 230" x="309" y="1433"><svg width="128" height="230" xmlns="http://www.w3.org/2000/svg" xmlns:xlink="http://www.w3.org/1999/xlink" xmlns:svgjs="http://svgjs.com/svgjs" viewBox="350 1433 128 230" x="350" y="1433"><svg width="128" height="230" xmlns="http://www.w3.org/2000/svg" xmlns:xlink="http://www.w3.org/1999/xlink" xmlns:svgjs="http://svgjs.com/svgjs" viewBox="350 1433 128 230" x="350" y="1433"><svg width="122" height="216" xmlns="http://www.w3.org/2000/svg" xmlns:xlink="http://www.w3.org/1999/xlink" xmlns:svgjs="http://svgjs.com/svgjs" viewBox="0.107 0 121.786 216" fill="#2626bc" opacity=".102" x="353" y="1447"><svg xmlns="http://www.w3.org/2000/svg" xmlns:xlink="http://www.w3.org/1999/xlink" width="122" height="216" viewBox="0.339 0.38 121.32 215.174"><path paint-order="stroke fill markers" fill-rule="evenodd" d="M107.011 215.554H14.988c-8.09 0-14.649-6.558-14.649-14.649V15.028C.34 6.938 6.897.38 14.988.38h92.023c8.09 0 14.649 6.557 14.649 14.648v185.877c0 8.09-6.558 14.649-14.649 14.649z"/></svg></svg><svg width="122" height="216" xmlns="http://www.w3.org/2000/svg" xmlns:xlink="http://www.w3.org/1999/xlink" xmlns:svgjs="http://svgjs.com/svgjs" viewBox="0.107 0 121.786 216" fill="#6583fe" x="353" y="1435"><svg xmlns="http://www.w3.org/2000/svg" xmlns:xlink="http://www.w3.org/1999/xlink" width="122" height="216" viewBox="0.339 0.661 121.32 215.174"><path paint-order="stroke fill markers" fill-rule="evenodd" d="M107.011 215.835H14.988c-8.09 0-14.649-6.558-14.649-14.648V15.309C.34 7.22 6.897.661 14.988.661h92.023c8.09 0 14.649 6.558 14.649 14.648v185.878c0 8.09-6.558 14.648-14.649 14.648z"/></svg></svg><svg width="122" height="174" xmlns="http://www.w3.org/2000/svg" xmlns:xlink="http://www.w3.org/1999/xlink" xmlns:svgjs="http://svgjs.com/svgjs" viewBox="0.086 0 121.829 174" fill="#02ffb3" x="353" y="1456"><svg xmlns="http://www.w3.org/2000/svg" xmlns:xlink="http://www.w3.org/1999/xlink" width="122" height="174" viewBox="0.34 0.612 121.318 173.271"><path paint-order="stroke fill markers" fill-rule="evenodd" d="M.34.612H121.66v173.271H.34V.613z"/></svg></svg><svg width="122" height="79" xmlns="http://www.w3.org/2000/svg" xmlns:xlink="http://www.w3.org/1999/xlink" xmlns:svgjs="http://svgjs.com/svgjs" viewBox="0 0.177 122 78.646" fill="#01eca5" x="353" y="1456"><svg xmlns="http://www.w3.org/2000/svg" xmlns:xlink="http://www.w3.org/1999/xlink" width="122" height="79" viewBox="0.34 0.612 121.318 78.206"><path paint-order="stroke fill markers" fill-rule="evenodd" d="M.34.612H121.66v78.206H.34V.612z"/></svg></svg><svg width="122" height="69" xmlns="http://www.w3.org/2000/svg" xmlns:xlink="http://www.w3.org/1999/xlink" xmlns:svgjs="http://svgjs.com/svgjs" viewBox="0 0.362 122 68.277" fill="#ffc4df" x="353" y="1456"><svg xmlns="http://www.w3.org/2000/svg" xmlns:xlink="http://www.w3.org/1999/xlink" width="122" height="69" viewBox="0.34 0.612 121.318 67.895"><path paint-order="stroke fill markers" fill-rule="evenodd" d="M.34.612H121.66v67.895H.34V.612z"/></svg></svg><svg width="122" height="26" xmlns="http://www.w3.org/2000/svg" xmlns:xlink="http://www.w3.org/1999/xlink" xmlns:svgjs="http://svgjs.com/svgjs" viewBox="353 1487 122 26" x="353" y="1487"><svg width="33" height="26" xmlns="http://www.w3.org/2000/svg" xmlns:xlink="http://www.w3.org/1999/xlink" xmlns:svgjs="http://svgjs.com/svgjs" viewBox="0 0.336 33 25.329" fill="#ffa8cf" x="353" y="1487"><svg xmlns="http://www.w3.org/2000/svg" xmlns:xlink="http://www.w3.org/1999/xlink" width="33" height="26" viewBox="0.338 0.6 32.096 24.635"><path paint-order="stroke fill markers" fill-rule="evenodd" d="M29.993 25.235H2.78a2.442 2.442 0 0 1-2.442-2.442V3.042A2.442 2.442 0 0 1 2.78.6h27.213a2.441 2.441 0 0 1 2.441 2.442v19.751a2.442 2.442 0 0 1-2.441 2.442z"/></svg></svg><svg width="33" height="26" xmlns="http://www.w3.org/2000/svg" xmlns:xlink="http://www.w3.org/1999/xlink" xmlns:svgjs="http://svgjs.com/svgjs" viewBox="0 0.336 33 25.329" fill="#ffa8cf" x="442" y="1487"><svg xmlns="http://www.w3.org/2000/svg" xmlns:xlink="http://www.w3.org/1999/xlink" width="33" height="26" viewBox="0.564 0.6 32.096 24.635"><path paint-order="stroke fill markers" fill-rule="evenodd" d="M30.218 25.235H3.005a2.442 2.442 0 0 1-2.441-2.442V3.042A2.442 2.442 0 0 1 3.005.6h27.213a2.442 2.442 0 0 1 2.442 2.442v19.751a2.441 2.441 0 0 1-2.442 2.442z"/></svg></svg></svg><svg width="42" height="33" xmlns="http://www.w3.org/2000/svg" xmlns:xlink="http://www.w3.org/1999/xlink" xmlns:svgjs="http://svgjs.com/svgjs" viewBox="0 0.336 42 32.328" fill="#ffa8cf" x="393" y="1487"><svg xmlns="http://www.w3.org/2000/svg" xmlns:xlink="http://www.w3.org/1999/xlink" width="42" height="33" viewBox="0.557 0.6 40.885 31.47"><path paint-order="stroke fill markers" fill-rule="evenodd" d="M39 .6H2.998A2.442 2.442 0 0 0 .557 3.042v19.751a2.442 2.442 0 0 0 2.441 2.442h6.663c2.195 0 4.253 1.18 5.26 3.13a6.835 6.835 0 0 0 6.078 3.706 6.835 6.835 0 0 0 6.08-3.706c1.005-1.95 3.064-3.13 5.259-3.13H39a2.442 2.442 0 0 0 2.441-2.442V3.042A2.442 2.442 0 0 0 39 .6z"/></svg></svg><svg width="122" height="26" xmlns="http://www.w3.org/2000/svg" xmlns:xlink="http://www.w3.org/1999/xlink" xmlns:svgjs="http://svgjs.com/svgjs" viewBox="353 1478 122 26" x="353" y="1478"><svg width="33" height="26" xmlns="http://www.w3.org/2000/svg" xmlns:xlink="http://www.w3.org/1999/xlink" xmlns:svgjs="http://svgjs.com/svgjs" viewBox="0 0.336 33 25.328" fill="#fff" x="353" y="1478"><svg xmlns="http://www.w3.org/2000/svg" xmlns:xlink="http://www.w3.org/1999/xlink" width="33" height="26" viewBox="0.338 0.701 32.096 24.634"><path paint-order="stroke fill markers" fill-rule="evenodd" d="M29.993 25.336H2.78a2.442 2.442 0 0 1-2.442-2.442V3.143A2.442 2.442 0 0 1 2.78.7h27.213a2.441 2.441 0 0 1 2.441 2.442v19.752a2.441 2.441 0 0 1-2.441 2.44z"/></svg></svg><svg width="33" height="26" xmlns="http://www.w3.org/2000/svg" xmlns:xlink="http://www.w3.org/1999/xlink" xmlns:svgjs="http://svgjs.com/svgjs" viewBox="0 0.336 33 25.328" fill="#fff" x="442" y="1478"><svg xmlns="http://www.w3.org/2000/svg" xmlns:xlink="http://www.w3.org/1999/xlink" width="33" height="26" viewBox="0.564 0.701 32.096 24.634"><path paint-order="stroke fill markers" fill-rule="evenodd" d="M30.218 25.336H3.005a2.442 2.442 0 0 1-2.441-2.442V3.143A2.442 2.442 0 0 1 3.005.7h27.213a2.442 2.442 0 0 1 2.442 2.442v19.752a2.441 2.441 0 0 1-2.442 2.44z"/></svg></svg></svg><svg width="128" height="221" xmlns="http://www.w3.org/2000/svg" xmlns:xlink="http://www.w3.org/1999/xlink" xmlns:svgjs="http://svgjs.com/svgjs" viewBox="0.628 0 126.744 221" fill="#2626bc" x="350" y="1433"><svg xmlns="http://www.w3.org/2000/svg" xmlns:xlink="http://www.w3.org/1999/xlink" width="128" height="221" viewBox="0.898 0.219 126.203 220.057"><path paint-order="stroke fill markers" fill-rule="evenodd" d="M110.011 220.276H17.988c-9.424 0-17.09-7.666-17.09-17.09V17.31C.898 7.886 8.564.22 17.988.22h92.023c9.424 0 17.09 7.667 17.09 17.09v185.878c0 9.423-7.666 17.09-17.09 17.09zM17.988 5.102c-6.731 0-12.207 5.476-12.207 12.207v185.878c0 6.73 5.476 12.207 12.207 12.207h92.023c6.731 0 12.207-5.476 12.207-12.207V17.309c0-6.731-5.476-12.207-12.207-12.207H17.988z"/></svg></svg><svg width="22" height="6" xmlns="http://www.w3.org/2000/svg" xmlns:xlink="http://www.w3.org/1999/xlink" xmlns:svgjs="http://svgjs.com/svgjs" viewBox="403 1444 22 6" x="403" y="1444"><svg width="22" height="6" xmlns="http://www.w3.org/2000/svg" xmlns:xlink="http://www.w3.org/1999/xlink" xmlns:svgjs="http://svgjs.com/svgjs" viewBox="0 0.554 22 4.893" fill="#b7c5ff" x="403" y="1444"><svg xmlns="http://www.w3.org/2000/svg" xmlns:xlink="http://www.w3.org/1999/xlink" width="22" height="6" viewBox="0.021 0.142 21.956 4.883"><path paint-order="stroke fill markers" fill-rule="evenodd" d="M19.536 5.025H2.463a2.442 2.442 0 0 1 0-4.883h17.073a2.442 2.442 0 0 1 0 4.883z"/></svg></svg></svg><svg width="6" height="6" xmlns="http://www.w3.org/2000/svg" xmlns:xlink="http://www.w3.org/1999/xlink" xmlns:svgjs="http://svgjs.com/svgjs" fill="#b7c5ff" x="431" y="1444"><svg xmlns="http://www.w3.org/2000/svg" xmlns:xlink="http://www.w3.org/1999/xlink" width="6" height="6" viewBox="0.485 0.14 4.885 4.885"><path paint-order="stroke fill markers" fill-rule="evenodd" d="M2.928 5.025A2.44 2.44 0 0 1 .485 2.583 2.44 2.44 0 0 1 2.928.14 2.44 2.44 0 0 1 5.37 2.583a2.44 2.44 0 0 1-2.442 2.442z"/></svg></svg></svg><svg width="90" height="85" xmlns="http://www.w3.org/2000/svg" xmlns:xlink="http://www.w3.org/1999/xlink" xmlns:svgjs="http://svgjs.com/svgjs" viewBox="0 0.196 90 84.609" fill="#fff" x="369" y="1535"><svg xmlns="http://www.w3.org/2000/svg" xmlns:xlink="http://www.w3.org/1999/xlink" width="90" height="85" viewBox="0.25 0.231 89.499 84.138"><path paint-order="stroke fill markers" fill-rule="evenodd" d="M79.984 84.37H10.015C4.622 84.37.25 79.996.25 74.603V9.997C.25 4.603 4.622.23 10.015.23h69.968c5.394 0 9.766 4.372 9.766 9.766v64.607c0 5.393-4.372 9.765-9.765 9.765z"/></svg></svg><svg width="34" height="34" xmlns="http://www.w3.org/2000/svg" xmlns:xlink="http://www.w3.org/1999/xlink" xmlns:svgjs="http://svgjs.com/svgjs" viewBox="397 1518 34 34" x="397" y="1518"><svg width="34" height="34" xmlns="http://www.w3.org/2000/svg" xmlns:xlink="http://www.w3.org/1999/xlink" xmlns:svgjs="http://svgjs.com/svgjs" fill="#ff7eb8" x="397" y="1518"><svg xmlns="http://www.w3.org/2000/svg" xmlns:xlink="http://www.w3.org/1999/xlink" width="34" height="34" viewBox="0.568 0.599 32.862 32.862"><path paint-order="stroke fill markers" fill-rule="evenodd" d="M17 33.462C7.913 33.462.568 26.117.568 17.03.568 7.944 7.913.599 17 .599c9.086 0 16.43 7.345 16.43 16.432 0 9.086-7.344 16.43-16.43 16.43z"/></svg></svg><svg width="18" height="25" xmlns="http://www.w3.org/2000/svg" xmlns:xlink="http://www.w3.org/1999/xlink" xmlns:svgjs="http://svgjs.com/svgjs" viewBox="0.43 0 17.14 25" fill="#fff" x="405" y="1527"><svg xmlns="http://www.w3.org/2000/svg" xmlns:xlink="http://www.w3.org/1999/xlink" width="18" height="25" viewBox="0.888 0.476 16.226 23.667"><path paint-order="stroke fill markers" fill-rule="evenodd" d="M17.113 8.586c0-4.472-3.642-8.11-8.115-8.11-4.473 0-8.11 3.638-8.11 8.11 0 2.207.889 4.21 2.319 5.674a8.082 8.082 0 0 0-2.32 5.67v2.392c1.5.85 3.14 1.474 4.884 1.821v-4.214a3.231 3.231 0 0 1 6.46 0v4.214a16.38 16.38 0 0 0 4.882-1.821v-2.393a8.063 8.063 0 0 0-2.324-5.669 8.082 8.082 0 0 0 2.324-5.674zM8.998 11.82a3.235 3.235 0 0 1-3.227-3.233A3.234 3.234 0 0 1 8.998 5.36a3.235 3.235 0 0 1 3.232 3.227 3.236 3.236 0 0 1-3.232 3.233z"/></svg></svg></svg><svg width="68" height="16" xmlns="http://www.w3.org/2000/svg" xmlns:xlink="http://www.w3.org/1999/xlink" xmlns:svgjs="http://svgjs.com/svgjs" viewBox="380 1562 68 16" x="380" y="1562"><svg width="11" height="6" xmlns="http://www.w3.org/2000/svg" xmlns:xlink="http://www.w3.org/1999/xlink" xmlns:svgjs="http://svgjs.com/svgjs" viewBox="0 0.463 11 5.073" fill="#ff7eb8" x="380" y="1562"><svg xmlns="http://www.w3.org/2000/svg" xmlns:xlink="http://www.w3.org/1999/xlink" width="11" height="6" viewBox="0.142 0.519 10.586 4.883"><path paint-order="stroke fill markers" fill-rule="evenodd" d="M8.287.519H2.584a2.442 2.442 0 0 0 0 4.883h5.703a2.442 2.442 0 0 0 0-4.883z"/></svg></svg><svg width="68" height="6" xmlns="http://www.w3.org/2000/svg" xmlns:xlink="http://www.w3.org/1999/xlink" xmlns:svgjs="http://svgjs.com/svgjs" viewBox="0 0.548 68 4.903" fill="#9fb0fe" x="380" y="1572"><svg xmlns="http://www.w3.org/2000/svg" xmlns:xlink="http://www.w3.org/1999/xlink" width="68" height="6" viewBox="0.142 0.417 67.715 4.883"><path paint-order="stroke fill markers" fill-rule="evenodd" d="M65.415.417H2.584a2.442 2.442 0 0 0 0 4.883h62.831a2.442 2.442 0 0 0 0-4.883z"/></svg></svg></svg><svg width="68" height="16" xmlns="http://www.w3.org/2000/svg" xmlns:xlink="http://www.w3.org/1999/xlink" xmlns:svgjs="http://svgjs.com/svgjs" viewBox="380 1588 68 16" x="380" y="1588"><svg width="19" height="6" xmlns="http://www.w3.org/2000/svg" xmlns:xlink="http://www.w3.org/1999/xlink" xmlns:svgjs="http://svgjs.com/svgjs" viewBox="0 0.41 19 5.18" fill="#ff7eb8" x="380" y="1588"><svg xmlns="http://www.w3.org/2000/svg" xmlns:xlink="http://www.w3.org/1999/xlink" width="19" height="6" viewBox="0.142 0.357 17.911 4.883"><path paint-order="stroke fill markers" fill-rule="evenodd" d="M15.61.357H2.585a2.442 2.442 0 0 0 0 4.883H15.61a2.442 2.442 0 1 0 0-4.883z"/></svg></svg><svg width="68" height="6" xmlns="http://www.w3.org/2000/svg" xmlns:xlink="http://www.w3.org/1999/xlink" xmlns:svgjs="http://svgjs.com/svgjs" viewBox="0 0.548 68 4.903" fill="#9fb0fe" x="380" y="1598"><svg xmlns="http://www.w3.org/2000/svg" xmlns:xlink="http://www.w3.org/1999/xlink" width="68" height="6" viewBox="0.142 0.256 67.715 4.883"><path paint-order="stroke fill markers" fill-rule="evenodd" d="M65.415.256H2.584a2.442 2.442 0 0 0 0 4.883h62.831a2.442 2.442 0 0 0 0-4.883z"/></svg></svg></svg><svg width="42" height="33" xmlns="http://www.w3.org/2000/svg" xmlns:xlink="http://www.w3.org/1999/xlink" xmlns:svgjs="http://svgjs.com/svgjs" viewBox="0 0.336 42 32.329" fill="#ff7eb8" x="393" y="1478"><svg xmlns="http://www.w3.org/2000/svg" xmlns:xlink="http://www.w3.org/1999/xlink" width="42" height="33" viewBox="0.557 0.701 40.885 31.471"><path paint-order="stroke fill markers" fill-rule="evenodd" d="M39 .701H2.998A2.442 2.442 0 0 0 .557 3.143v19.752a2.442 2.442 0 0 0 2.441 2.44h6.663c2.195 0 4.253 1.181 5.26 3.131a6.836 6.836 0 0 0 6.078 3.706 6.836 6.836 0 0 0 6.08-3.706c1.005-1.95 3.064-3.13 5.259-3.13H39a2.442 2.442 0 0 0 2.441-2.441V3.143A2.442 2.442 0 0 0 39 .7z"/></svg></svg><svg width="16" height="6" xmlns="http://www.w3.org/2000/svg" xmlns:xlink="http://www.w3.org/1999/xlink" xmlns:svgjs="http://svgjs.com/svgjs" viewBox="0 0.393 16 5.215" fill="#6583fe" x="448" y="1465"><svg xmlns="http://www.w3.org/2000/svg" xmlns:xlink="http://www.w3.org/1999/xlink" width="16" height="6" viewBox="0.649 0.637 14.981 4.883"><path paint-order="stroke fill markers" fill-rule="evenodd" d="M13.19.637H3.09a2.442 2.442 0 0 0 0 4.883h10.1a2.442 2.442 0 0 0 0-4.883z"/></svg></svg></svg><svg width="15" height="15" xmlns="http://www.w3.org/2000/svg" xmlns:xlink="http://www.w3.org/1999/xlink" xmlns:svgjs="http://svgjs.com/svgjs" fill="#ff5ba8" x="318" y="1605"><svg xmlns="http://www.w3.org/2000/svg" xmlns:xlink="http://www.w3.org/1999/xlink" width="15" height="15" viewBox="0.114 0.111 13.957 13.957"><path paint-order="stroke fill markers" fill-rule="evenodd" d="M7.093 14.067A6.986 6.986 0 0 1 .114 7.09 6.986 6.986 0 0 1 7.094.111a6.986 6.986 0 0 1 6.977 6.978 6.986 6.986 0 0 1-6.978 6.978zm0-9.073c-1.155 0-2.096.94-2.096 2.096 0 1.156.94 2.095 2.096 2.095 1.156 0 2.096-.94 2.096-2.095 0-1.156-.94-2.096-2.096-2.096z"/></svg></svg><svg width="17" height="17" xmlns="http://www.w3.org/2000/svg" xmlns:xlink="http://www.w3.org/1999/xlink" xmlns:svgjs="http://svgjs.com/svgjs" fill="#01eca5" x="495" y="1489"><svg xmlns="http://www.w3.org/2000/svg" xmlns:xlink="http://www.w3.org/1999/xlink" width="17" height="17" viewBox="0.928 0.606 15.625 15.625"><path paint-order="stroke fill markers" fill-rule="evenodd" d="M8.74 16.23a2.44 2.44 0 0 1-2.44-2.44 2.933 2.933 0 0 0-2.93-2.93 2.441 2.441 0 0 1 0-4.883 2.933 2.933 0 0 0 2.93-2.93 2.441 2.441 0 1 1 4.882 0 2.933 2.933 0 0 0 2.93 2.93 2.441 2.441 0 1 1 0 4.883 2.933 2.933 0 0 0-2.93 2.93 2.441 2.441 0 0 1-2.441 2.44z"/></svg></svg><svg width="16" height="17" xmlns="http://www.w3.org/2000/svg" xmlns:xlink="http://www.w3.org/1999/xlink" xmlns:svgjs="http://svgjs.com/svgjs" viewBox="0 0.5 16 16" fill="#6583fe" x="489" y="1512"><svg xmlns="http://www.w3.org/2000/svg" xmlns:xlink="http://www.w3.org/1999/xlink" width="16" height="17" viewBox="0.092 0.416 15.625 15.625"><path paint-order="stroke fill markers" fill-rule="evenodd" d="M7.905 16.042A2.441 2.441 0 0 1 5.463 13.6a2.933 2.933 0 0 0-2.93-2.93 2.441 2.441 0 1 1 0-4.883 2.933 2.933 0 0 0 2.93-2.93 2.441 2.441 0 1 1 4.883 0 2.932 2.932 0 0 0 2.93 2.93 2.441 2.441 0 1 1 0 4.883 2.933 2.933 0 0 0-2.93 2.93 2.441 2.441 0 0 1-2.441 2.442z"/></svg></svg><svg width="17" height="16" xmlns="http://www.w3.org/2000/svg" xmlns:xlink="http://www.w3.org/1999/xlink" xmlns:svgjs="http://svgjs.com/svgjs" viewBox="0.5 0 16 16" fill="#01eca5" x="309" y="1564"><svg xmlns="http://www.w3.org/2000/svg" xmlns:xlink="http://www.w3.org/1999/xlink" width="17" height="16" viewBox="0.814 0.115 15.625 15.625"><path paint-order="stroke fill markers" fill-rule="evenodd" d="M8.626 15.74a2.442 2.442 0 0 1-2.441-2.442 2.933 2.933 0 0 0-2.93-2.93 2.442 2.442 0 0 1 0-4.882 2.933 2.933 0 0 0 2.93-2.93 2.442 2.442 0 0 1 4.882 0 2.933 2.933 0 0 0 2.93 2.93 2.442 2.442 0 0 1 0 4.882 2.933 2.933 0 0 0-2.93 2.93 2.441 2.441 0 0 1-2.44 2.441z"/></svg></svg><svg width="17" height="17" xmlns="http://www.w3.org/2000/svg" xmlns:xlink="http://www.w3.org/1999/xlink" xmlns:svgjs="http://svgjs.com/svgjs" fill="#6583fe" x="324" y="1578"><svg xmlns="http://www.w3.org/2000/svg" width="17" height="17" viewBox="0.411 0.592 15.625 15.625"><path paint-order="stroke fill markers" fill-rule="evenodd" d="M8.224 16.217a2.441 2.441 0 0 1-2.442-2.442 2.932 2.932 0 0 0-2.93-2.93 2.442 2.442 0 0 1 0-4.882 2.933 2.933 0 0 0 2.93-2.93 2.441 2.441 0 0 1 4.883 0 2.933 2.933 0 0 0 2.93 2.93 2.442 2.442 0 0 1 0 4.883 2.932 2.932 0 0 0-2.93 2.93 2.441 2.441 0 0 1-2.441 2.44z"/></svg></svg></svg></svg>